<?xml version="1.0" encoding="UTF-8"?>
<svg id="Layer_1" data-name="Layer 1" xmlns="http://www.w3.org/2000/svg" viewBox="0 0 1460.74 362.86">
  <defs>
    <style>
      .cls-1 {
        fill: #fff;
      }

      .cls-2, .cls-3 {
        fill: none;
      }

      .cls-4 {
        fill: var(--flowchart-text-color);
      }

      .cls-5 {
        fill: #e6302b;
      }

      .cls-6 {
        fill: #00a1e1;
      }

      .cls-3 {
        stroke: #e6302b;
        stroke-miterlimit: 10;
        stroke-width: 2px;
      }
    </style>
  </defs>
  <g>
    <g>
      <rect class="cls-6" x="0" y="245.57" width="223.77" height="110.81"/>
      <polygon class="cls-5" points="228.96 250.05 228.96 252.05 228.97 252.05 228.97 360.86 7.2 360.86 7.2 360.86 5.2 360.86 5.2 362.86 230.97 362.86 230.97 250.05 228.96 250.05"/>
    </g>
    <g>
      <rect class="cls-2" x="13.35" y="256.92" width="198.27" height="90"/>
      <path class="cls-1" d="M22.13,281.36h-5.26v3.94h6.14v1.78h-8.37v-12.8h8.31v1.79h-6.08v3.53h5.26v1.76Z"/>
      <path class="cls-1" d="M28.81,287.25c-1.35,0-2.45-.43-3.29-1.28s-1.26-1.99-1.26-3.41v-.26c0-.95.18-1.8.55-2.54s.88-1.33,1.54-1.74,1.4-.62,2.21-.62c1.29,0,2.3.41,3,1.24s1.06,2,1.06,3.51v.86h-6.21c.06.79.33,1.41.79,1.86s1.04.69,1.74.69c.98,0,1.78-.4,2.39-1.19l1.15,1.1c-.38.57-.89,1.01-1.52,1.32s-1.35.47-2.14.47ZM28.56,279.1c-.59,0-1.06.21-1.42.62s-.59.98-.69,1.71h4.07v-.16c-.05-.71-.24-1.26-.57-1.62s-.8-.55-1.39-.55Z"/>
      <path class="cls-1" d="M39.26,279.52c-.28-.05-.57-.07-.87-.07-.98,0-1.64.38-1.98,1.12v6.5h-2.14v-9.51h2.04l.05,1.06c.52-.83,1.23-1.24,2.14-1.24.3,0,.56.04.76.12v2Z"/>
      <path class="cls-1" d="M45.94,284.49c0-.38-.16-.67-.47-.87s-.83-.38-1.56-.53-1.33-.35-1.82-.58c-1.07-.52-1.6-1.26-1.6-2.24,0-.82.35-1.51,1.04-2.06s1.57-.83,2.64-.83c1.14,0,2.06.28,2.76.84s1.05,1.29,1.05,2.19h-2.14c0-.41-.15-.75-.46-1.02s-.71-.41-1.21-.41c-.47,0-.85.11-1.15.33s-.44.51-.44.87c0,.33.14.58.41.76s.83.36,1.67.55,1.5.4,1.97.66.83.56,1.06.92.35.79.35,1.3c0,.86-.35,1.55-1.06,2.08s-1.64.8-2.79.8c-.78,0-1.47-.14-2.08-.42s-1.08-.67-1.42-1.16-.51-1.02-.51-1.59h2.07c.03.5.22.89.57,1.16s.82.41,1.4.41.99-.11,1.28-.32.44-.49.44-.84Z"/>
      <path class="cls-1" d="M52.58,275.25v2.31h1.68v1.58h-1.68v5.31c0,.36.07.62.22.79s.4.24.77.24c.25,0,.5-.03.75-.09v1.65c-.49.13-.96.2-1.41.2-1.64,0-2.46-.91-2.46-2.72v-5.39h-1.56v-1.58h1.56v-2.31h2.14Z"/>
      <path class="cls-1" d="M60.07,287.25c-1.35,0-2.45-.43-3.29-1.28s-1.26-1.99-1.26-3.41v-.26c0-.95.18-1.8.55-2.54s.88-1.33,1.54-1.74,1.4-.62,2.21-.62c1.29,0,2.3.41,3,1.24s1.06,2,1.06,3.51v.86h-6.21c.06.79.33,1.41.79,1.86s1.04.69,1.74.69c.98,0,1.78-.4,2.39-1.19l1.15,1.1c-.38.57-.89,1.01-1.52,1.32s-1.35.47-2.14.47ZM59.82,279.1c-.59,0-1.06.21-1.42.62s-.59.98-.69,1.71h4.07v-.16c-.05-.71-.24-1.26-.57-1.62s-.8-.55-1.39-.55Z"/>
      <path class="cls-1" d="M73.12,283l-.95.98v3.1h-2.14v-13.5h2.14v7.79l.67-.83,2.63-2.96h2.57l-3.53,3.96,3.91,5.55h-2.47l-2.82-4.08Z"/>
      <path class="cls-1" d="M83.61,287.25c-1.35,0-2.45-.43-3.29-1.28s-1.26-1.99-1.26-3.41v-.26c0-.95.18-1.8.55-2.54s.88-1.33,1.54-1.74,1.4-.62,2.21-.62c1.29,0,2.3.41,3,1.24s1.06,2,1.06,3.51v.86h-6.21c.06.79.33,1.41.79,1.86s1.04.69,1.74.69c.98,0,1.78-.4,2.39-1.19l1.15,1.1c-.38.57-.89,1.01-1.52,1.32s-1.35.47-2.14.47ZM83.36,279.1c-.59,0-1.06.21-1.42.62s-.59.98-.69,1.71h4.07v-.16c-.05-.71-.24-1.26-.57-1.62s-.8-.55-1.39-.55Z"/>
      <path class="cls-1" d="M93.27,287.25c-1.35,0-2.45-.43-3.29-1.28s-1.26-1.99-1.26-3.41v-.26c0-.95.18-1.8.55-2.54s.88-1.33,1.54-1.74,1.4-.62,2.21-.62c1.29,0,2.3.41,3,1.24s1.06,2,1.06,3.51v.86h-6.21c.06.79.33,1.41.79,1.86s1.04.69,1.74.69c.98,0,1.78-.4,2.39-1.19l1.15,1.1c-.38.57-.89,1.01-1.52,1.32s-1.35.47-2.14.47ZM93.02,279.1c-.59,0-1.06.21-1.42.62s-.59.98-.69,1.71h4.07v-.16c-.05-.71-.24-1.26-.57-1.62s-.8-.55-1.39-.55Z"/>
      <path class="cls-1" d="M103.72,279.52c-.28-.05-.57-.07-.87-.07-.98,0-1.64.38-1.98,1.12v6.5h-2.14v-9.51h2.04l.05,1.06c.52-.83,1.23-1.24,2.14-1.24.3,0,.56.04.76.12v2Z"/>
      <path class="cls-1" d="M114.46,282.15h-2.48v4.92h-2.22v-12.8h4.5c1.48,0,2.62.33,3.42.99.8.66,1.2,1.62,1.2,2.88,0,.86-.21,1.57-.62,2.15-.41.58-.99,1.02-1.73,1.33l2.87,5.33v.11h-2.38l-2.57-4.92ZM111.98,280.36h2.29c.75,0,1.34-.19,1.76-.57s.63-.89.63-1.55-.19-1.22-.58-1.59-.97-.57-1.74-.58h-2.35v4.29Z"/>
      <path class="cls-1" d="M124.97,287.25c-1.35,0-2.45-.43-3.29-1.28s-1.26-1.99-1.26-3.41v-.26c0-.95.18-1.8.55-2.54s.88-1.33,1.54-1.74,1.4-.62,2.21-.62c1.29,0,2.3.41,3,1.24s1.06,2,1.06,3.51v.86h-6.21c.06.79.33,1.41.79,1.86s1.04.69,1.74.69c.98,0,1.78-.4,2.39-1.19l1.15,1.1c-.38.57-.89,1.01-1.52,1.32s-1.35.47-2.14.47ZM124.72,279.1c-.59,0-1.06.21-1.42.62s-.59.98-.69,1.71h4.07v-.16c-.05-.71-.24-1.26-.57-1.62s-.8-.55-1.39-.55Z"/>
      <path class="cls-1" d="M135.77,284.49c0-.38-.16-.67-.47-.87s-.83-.38-1.56-.53-1.33-.35-1.82-.58c-1.07-.52-1.6-1.26-1.6-2.24,0-.82.35-1.51,1.04-2.06s1.57-.83,2.64-.83c1.14,0,2.06.28,2.76.84s1.05,1.29,1.05,2.19h-2.14c0-.41-.15-.75-.46-1.02s-.71-.41-1.21-.41c-.47,0-.85.11-1.15.33s-.44.51-.44.87c0,.33.14.58.41.76s.83.36,1.67.55,1.5.4,1.97.66.83.56,1.06.92.35.79.35,1.3c0,.86-.35,1.55-1.06,2.08s-1.64.8-2.79.8c-.78,0-1.47-.14-2.08-.42s-1.08-.67-1.42-1.16-.51-1.02-.51-1.59h2.07c.03.5.22.89.57,1.16s.82.41,1.4.41.99-.11,1.28-.32.44-.49.44-.84Z"/>
      <path class="cls-1" d="M143.92,287.25c-1.35,0-2.45-.43-3.29-1.28s-1.26-1.99-1.26-3.41v-.26c0-.95.18-1.8.55-2.54s.88-1.33,1.54-1.74,1.4-.62,2.21-.62c1.29,0,2.3.41,3,1.24s1.06,2,1.06,3.51v.86h-6.21c.06.79.33,1.41.79,1.86s1.04.69,1.74.69c.98,0,1.78-.4,2.39-1.19l1.15,1.1c-.38.57-.89,1.01-1.52,1.32s-1.35.47-2.14.47ZM143.67,279.1c-.59,0-1.06.21-1.42.62s-.59.98-.69,1.71h4.07v-.16c-.05-.71-.24-1.26-.57-1.62s-.8-.55-1.39-.55Z"/>
      <path class="cls-1" d="M155.08,287.07c-.09-.18-.18-.48-.25-.89-.68.71-1.51,1.06-2.5,1.06s-1.73-.27-2.34-.82-.91-1.22-.91-2.02c0-1.01.38-1.79,1.13-2.33s1.83-.81,3.23-.81h1.31v-.62c0-.49-.14-.89-.41-1.18s-.69-.44-1.26-.44c-.49,0-.88.12-1.2.36s-.47.55-.47.93h-2.14c0-.52.17-1.01.52-1.46s.82-.81,1.41-1.07,1.26-.39,1.99-.39c1.11,0,2,.28,2.66.84s1,1.35,1.02,2.36v4.29c0,.86.12,1.54.36,2.05v.15h-2.18ZM152.73,285.54c.42,0,.82-.1,1.19-.31s.65-.48.84-.83v-1.79h-1.15c-.79,0-1.39.14-1.78.41s-.6.67-.6,1.17c0,.41.14.74.41.98s.64.37,1.09.37Z"/>
      <path class="cls-1" d="M164.11,279.52c-.28-.05-.57-.07-.87-.07-.98,0-1.64.38-1.98,1.12v6.5h-2.14v-9.51h2.04l.05,1.06c.52-.83,1.23-1.24,2.14-1.24.3,0,.56.04.76.12v2Z"/>
      <path class="cls-1" d="M169.2,285.54c.53,0,.98-.16,1.33-.47s.54-.69.56-1.15h2.01c-.02.59-.21,1.14-.55,1.66s-.81.92-1.41,1.22-1.23.45-1.92.45c-1.33,0-2.38-.43-3.16-1.29s-1.17-2.05-1.17-3.57v-.22c0-1.45.39-2.61,1.16-3.48s1.83-1.3,3.16-1.3c1.13,0,2.05.33,2.76.99s1.09,1.53,1.12,2.6h-2.01c-.02-.54-.21-.99-.56-1.34s-.79-.53-1.33-.53c-.69,0-1.22.25-1.6.75s-.57,1.26-.57,2.28v.34c0,1.03.19,1.8.56,2.31s.91.76,1.61.76Z"/>
      <path class="cls-1" d="M176.82,278.6c.7-.81,1.58-1.21,2.65-1.21,2.03,0,3.06,1.16,3.08,3.47v6.21h-2.14v-6.13c0-.66-.14-1.12-.43-1.39s-.7-.41-1.25-.41c-.86,0-1.49.38-1.92,1.14v6.79h-2.14v-13.5h2.14v5.03Z"/>
      <path class="cls-1" d="M24.42,304.51c-.13,1.37-.63,2.43-1.51,3.2s-2.05,1.15-3.51,1.15c-1.02,0-1.92-.24-2.69-.72s-1.38-1.17-1.8-2.06-.64-1.92-.66-3.1v-1.2c0-1.21.21-2.27.64-3.19s1.04-1.63,1.84-2.13,1.72-.75,2.77-.75c1.41,0,2.55.38,3.41,1.15s1.36,1.85,1.5,3.25h-2.21c-.11-.92-.37-1.58-.8-1.99s-1.06-.61-1.89-.61c-.97,0-1.71.35-2.23,1.06-.52.71-.78,1.74-.8,3.11v1.13c0,1.38.25,2.44.74,3.17.5.73,1.22,1.09,2.18,1.09.87,0,1.53-.2,1.97-.59s.72-1.05.83-1.96h2.21Z"/>
      <path class="cls-1" d="M28.47,308.67h-2.14v-13.5h2.14v13.5Z"/>
      <path class="cls-1" d="M30.39,303.83c0-.93.18-1.77.55-2.52s.89-1.32,1.56-1.72,1.44-.6,2.3-.6c1.28,0,2.32.41,3.12,1.24s1.23,1.92,1.3,3.29v.5c0,.94-.17,1.78-.53,2.51s-.88,1.31-1.55,1.71-1.45.61-2.32.61c-1.34,0-2.42-.45-3.22-1.34s-1.21-2.08-1.21-3.57v-.11ZM32.53,304.02c0,.98.2,1.75.61,2.3s.97.83,1.69.83,1.28-.28,1.68-.84.6-1.39.6-2.47c0-.96-.21-1.72-.62-2.29s-.97-.84-1.68-.84-1.25.28-1.66.83-.62,1.38-.62,2.48Z"/>
      <path class="cls-1" d="M46.8,307.74c-.63.74-1.52,1.11-2.67,1.11-1.03,0-1.81-.3-2.34-.91s-.8-1.48-.8-2.62v-6.16h2.14v6.13c0,1.21.5,1.81,1.5,1.81s1.74-.37,2.1-1.12v-6.83h2.14v9.51h-2.01l-.05-.93Z"/>
      <path class="cls-1" d="M50.64,303.85c0-1.46.34-2.64,1.02-3.53s1.59-1.33,2.73-1.33c1.01,0,1.82.35,2.44,1.05v-4.87h2.14v13.5h-1.93l-.11-.98c-.64.77-1.49,1.16-2.56,1.16s-2.01-.45-2.7-1.34-1.03-2.12-1.03-3.66ZM52.78,304.03c0,.97.19,1.72.56,2.26s.9.81,1.59.81c.87,0,1.51-.39,1.92-1.17v-4.06c-.39-.76-1.03-1.14-1.9-1.14-.69,0-1.22.27-1.6.82s-.56,1.37-.56,2.47Z"/>
      <path class="cls-1" d="M65.29,303.83c0-.93.18-1.77.55-2.52s.89-1.32,1.56-1.72,1.44-.6,2.3-.6c1.28,0,2.32.41,3.12,1.24s1.23,1.92,1.3,3.29v.5c0,.94-.17,1.78-.53,2.51s-.88,1.31-1.55,1.71-1.45.61-2.32.61c-1.34,0-2.42-.45-3.22-1.34s-1.21-2.08-1.21-3.57v-.11ZM67.42,304.02c0,.98.2,1.75.61,2.3s.97.83,1.69.83,1.28-.28,1.68-.84.6-1.39.6-2.47c0-.96-.21-1.72-.62-2.29s-.97-.84-1.68-.84-1.25.28-1.66.83-.62,1.38-.62,2.48Z"/>
      <path class="cls-1" d="M76.69,308.67v-7.93h-1.45v-1.58h1.45v-.87c0-1.05.29-1.87.88-2.44s1.41-.86,2.46-.86c.38,0,.77.05,1.2.16l-.05,1.67c-.23-.05-.51-.07-.82-.07-1.02,0-1.53.52-1.53,1.57v.84h1.93v1.58h-1.93v7.93h-2.14Z"/>
      <path class="cls-1" d="M86.4,303.83c0-.93.18-1.77.55-2.52s.89-1.32,1.56-1.72,1.44-.6,2.3-.6c1.28,0,2.32.41,3.12,1.24s1.23,1.92,1.3,3.29v.5c0,.94-.17,1.78-.53,2.51s-.88,1.31-1.55,1.71-1.45.61-2.32.61c-1.34,0-2.42-.45-3.22-1.34s-1.21-2.08-1.21-3.57v-.11ZM88.53,304.02c0,.98.2,1.75.61,2.3s.97.83,1.69.83,1.28-.28,1.68-.84.6-1.39.6-2.47c0-.96-.21-1.72-.62-2.29s-.97-.84-1.68-.84-1.25.28-1.66.83-.62,1.38-.62,2.48Z"/>
      <path class="cls-1" d="M99.03,299.16l.06,1.1c.7-.85,1.63-1.27,2.77-1.27,1.98,0,2.99,1.13,3.02,3.4v6.28h-2.14v-6.16c0-.6-.13-1.05-.39-1.34s-.69-.44-1.28-.44c-.86,0-1.5.39-1.92,1.17v6.77h-2.14v-9.51h2.01Z"/>
      <path class="cls-1" d="M106.66,303.85c0-1.46.34-2.64,1.02-3.53s1.59-1.33,2.73-1.33c1.01,0,1.82.35,2.44,1.05v-4.87h2.14v13.5h-1.93l-.11-.98c-.64.77-1.49,1.16-2.56,1.16s-2.01-.45-2.7-1.34-1.03-2.12-1.03-3.66ZM108.79,304.03c0,.97.19,1.72.56,2.26s.9.81,1.59.81c.87,0,1.51-.39,1.92-1.17v-4.06c-.39-.76-1.03-1.14-1.9-1.14-.69,0-1.22.27-1.6.82s-.56,1.37-.56,2.47Z"/>
      <path class="cls-1" d="M121.4,308.85c-1.35,0-2.45-.43-3.29-1.28s-1.26-1.99-1.26-3.41v-.26c0-.95.18-1.8.55-2.54s.88-1.33,1.54-1.75,1.4-.62,2.21-.62c1.29,0,2.3.41,3,1.24s1.06,2,1.06,3.51v.86h-6.21c.06.79.33,1.41.79,1.86s1.04.69,1.74.69c.98,0,1.78-.4,2.39-1.19l1.15,1.1c-.38.57-.89,1.01-1.52,1.32s-1.35.47-2.14.47ZM121.15,300.7c-.59,0-1.06.21-1.42.62s-.59.98-.69,1.71h4.07v-.16c-.05-.71-.24-1.25-.57-1.62s-.8-.55-1.39-.55Z"/>
      <path class="cls-1" d="M131.85,301.11c-.28-.05-.57-.07-.87-.07-.98,0-1.64.38-1.98,1.12v6.5h-2.14v-9.51h2.04l.05,1.06c.52-.83,1.23-1.24,2.14-1.24.3,0,.56.04.76.12v2Z"/>
      <path class="cls-1" d="M138.53,306.09c0-.38-.16-.67-.47-.87s-.83-.38-1.56-.53-1.33-.35-1.82-.58c-1.07-.52-1.6-1.26-1.6-2.24,0-.82.35-1.51,1.04-2.06s1.57-.83,2.64-.83c1.14,0,2.06.28,2.76.84s1.05,1.29,1.05,2.19h-2.14c0-.41-.15-.75-.46-1.02s-.71-.41-1.21-.41c-.47,0-.85.11-1.15.33s-.44.51-.44.87c0,.33.14.58.41.76s.83.37,1.67.55,1.5.4,1.97.66.83.56,1.06.92.35.79.35,1.3c0,.86-.35,1.55-1.06,2.08s-1.64.79-2.79.79c-.78,0-1.47-.14-2.08-.42s-1.08-.67-1.42-1.16-.51-1.02-.51-1.59h2.07c.03.5.22.89.57,1.17s.82.41,1.4.41.99-.11,1.28-.32.44-.49.44-.84Z"/>
      <path class="cls-1" d="M145.17,296.85v2.31h1.68v1.58h-1.68v5.31c0,.36.07.63.22.79s.4.24.77.24c.25,0,.5-.03.75-.09v1.65c-.49.13-.96.2-1.41.2-1.64,0-2.46-.91-2.46-2.72v-5.39h-1.56v-1.58h1.56v-2.31h2.14Z"/>
      <path class="cls-1" d="M152.67,308.85c-1.35,0-2.45-.43-3.29-1.28s-1.26-1.99-1.26-3.41v-.26c0-.95.18-1.8.55-2.54s.88-1.33,1.54-1.75,1.4-.62,2.21-.62c1.29,0,2.3.41,3,1.24s1.06,2,1.06,3.51v.86h-6.21c.06.79.33,1.41.79,1.86s1.04.69,1.74.69c.98,0,1.78-.4,2.39-1.19l1.15,1.1c-.38.57-.89,1.01-1.52,1.32s-1.35.47-2.14.47ZM152.41,300.7c-.59,0-1.06.21-1.42.62s-.59.98-.69,1.71h4.07v-.16c-.05-.71-.24-1.25-.57-1.62s-.8-.55-1.39-.55Z"/>
      <path class="cls-1" d="M163.9,307.74c-.63.74-1.52,1.11-2.67,1.11-1.03,0-1.81-.3-2.34-.91s-.8-1.48-.8-2.62v-6.16h2.14v6.13c0,1.21.5,1.81,1.5,1.81s1.74-.37,2.1-1.12v-6.83h2.14v9.51h-2.01l-.05-.93Z"/>
      <path class="cls-1" d="M170.12,299.16l.06,1.1c.7-.85,1.63-1.27,2.77-1.27,1.98,0,2.99,1.13,3.02,3.4v6.28h-2.14v-6.16c0-.6-.13-1.05-.39-1.34s-.69-.44-1.28-.44c-.86,0-1.5.39-1.92,1.17v6.77h-2.14v-9.51h2.01Z"/>
      <path class="cls-1" d="M178.16,296.69c0-.33.1-.6.31-.82s.51-.33.89-.33.69.11.9.33.32.49.32.82-.11.59-.32.8-.51.32-.9.32-.68-.11-.89-.32-.31-.48-.31-.8ZM180.42,308.67h-2.14v-9.51h2.14v9.51Z"/>
      <path class="cls-1" d="M184.73,299.16l.06,1.1c.7-.85,1.63-1.27,2.77-1.27,1.98,0,2.99,1.13,3.02,3.4v6.28h-2.14v-6.16c0-.6-.13-1.05-.39-1.34s-.69-.44-1.28-.44c-.86,0-1.5.39-1.92,1.17v6.77h-2.14v-9.51h2.01Z"/>
      <path class="cls-1" d="M192.39,303.85c0-1.48.35-2.66,1.04-3.54s1.62-1.32,2.76-1.32c1.08,0,1.94.38,2.56,1.13l.1-.96h1.92v9.22c0,1.25-.39,2.23-1.16,2.95s-1.82,1.08-3.14,1.08c-.7,0-1.38-.14-2.04-.43s-1.17-.67-1.52-1.14l1.01-1.28c.66.78,1.46,1.17,2.43,1.17.71,0,1.27-.19,1.68-.58s.62-.95.62-1.69v-.64c-.62.69-1.44,1.03-2.46,1.03-1.11,0-2.02-.44-2.73-1.33s-1.06-2.11-1.06-3.67ZM194.51,304.03c0,.96.19,1.71.58,2.25s.93.82,1.62.82c.86,0,1.5-.37,1.92-1.11v-4.18c-.4-.72-1.04-1.08-1.9-1.08-.7,0-1.25.28-1.64.83s-.58,1.38-.58,2.46Z"/>
      <path class="cls-1" d="M16.43,320.76l.06,1.1c.7-.85,1.63-1.27,2.77-1.27,1.98,0,2.99,1.13,3.02,3.4v6.28h-2.14v-6.16c0-.6-.13-1.05-.39-1.34s-.69-.43-1.28-.43c-.86,0-1.5.39-1.92,1.17v6.77h-2.14v-9.51h2.01Z"/>
      <path class="cls-1" d="M24.06,325.43c0-.93.18-1.77.55-2.52s.89-1.32,1.56-1.72,1.44-.6,2.3-.6c1.28,0,2.32.41,3.12,1.24s1.23,1.92,1.3,3.29v.5c0,.94-.17,1.78-.53,2.51s-.88,1.31-1.55,1.71-1.45.61-2.32.61c-1.34,0-2.42-.45-3.22-1.34s-1.21-2.08-1.21-3.57v-.11ZM26.19,325.62c0,.98.2,1.74.61,2.3s.97.83,1.69.83,1.28-.28,1.68-.84.6-1.39.6-2.47c0-.96-.21-1.72-.62-2.29s-.97-.84-1.68-.84-1.25.28-1.66.83-.62,1.38-.62,2.48Z"/>
      <path class="cls-1" d="M34.31,325.45c0-1.46.34-2.64,1.02-3.53s1.59-1.33,2.73-1.33c1.01,0,1.82.35,2.44,1.05v-4.87h2.14v13.5h-1.93l-.11-.98c-.64.77-1.49,1.16-2.56,1.16s-2.01-.45-2.7-1.34-1.03-2.12-1.03-3.66ZM36.44,325.63c0,.97.19,1.72.56,2.26s.9.81,1.59.81c.87,0,1.51-.39,1.92-1.17v-4.06c-.39-.76-1.03-1.14-1.9-1.14-.69,0-1.22.27-1.6.82s-.56,1.37-.56,2.47Z"/>
      <path class="cls-1" d="M44.87,318.29c0-.33.1-.6.31-.82s.51-.33.89-.33.69.11.9.33.32.49.32.82-.11.59-.32.8-.51.32-.9.32-.68-.11-.89-.32-.31-.48-.31-.8ZM47.14,330.27h-2.14v-9.51h2.14v9.51Z"/>
      <path class="cls-1" d="M49.09,325.45c0-1.48.35-2.66,1.04-3.54s1.62-1.32,2.76-1.32c1.08,0,1.94.38,2.56,1.13l.1-.96h1.92v9.22c0,1.25-.39,2.23-1.16,2.95s-1.82,1.08-3.14,1.08c-.7,0-1.38-.15-2.04-.44s-1.17-.67-1.52-1.14l1.01-1.28c.66.78,1.46,1.17,2.43,1.17.71,0,1.27-.19,1.68-.58s.62-.95.62-1.69v-.64c-.62.69-1.44,1.03-2.46,1.03-1.11,0-2.02-.44-2.73-1.33s-1.06-2.11-1.06-3.67ZM51.22,325.63c0,.96.19,1.71.58,2.25s.93.82,1.62.82c.86,0,1.5-.37,1.92-1.11v-4.18c-.4-.72-1.04-1.08-1.9-1.08-.7,0-1.25.28-1.64.83s-.58,1.38-.58,2.46Z"/>
      <path class="cls-1" d="M61.65,326.52c0-.78.1-1.4.29-1.87.19-.46.58-.97,1.15-1.53.57-.55.93-.95,1.09-1.18.23-.36.35-.74.35-1.16,0-.55-.14-.97-.41-1.26-.27-.29-.67-.43-1.2-.43s-.91.14-1.22.42-.46.67-.46,1.15h-2.14c.01-1.04.36-1.86,1.06-2.46.69-.6,1.61-.91,2.76-.91s2.1.3,2.76.9c.66.6.99,1.43.99,2.51,0,.96-.45,1.9-1.34,2.82l-1.08,1.06c-.39.44-.59,1.08-.6,1.93h-2ZM61.5,329.25c0-.34.11-.62.33-.84s.51-.32.88-.32.67.11.89.33.33.5.33.83-.11.59-.32.81-.51.32-.9.32-.68-.11-.89-.32-.31-.48-.31-.81Z"/>
    </g>
  </g>
  <g>
    <g>
      <rect class="cls-6" x="310.04" y="67.62" width="223.77" height="110.81"/>
      <polygon class="cls-5" points="539 72.1 539 74.1 539.01 74.1 539.01 182.91 317.24 182.91 317.24 182.91 315.24 182.91 315.24 184.91 541.01 184.91 541.01 72.1 539 72.1"/>
    </g>
    <g>
      <rect class="cls-2" x="322.79" y="78.03" width="198.27" height="90"/>
      <path class="cls-1" d="M326.44,118.98h-2.21v-12.8h2.21v12.8Z"/>
      <path class="cls-1" d="M330.95,109.47l.06,1.1c.7-.85,1.63-1.27,2.77-1.27,1.98,0,2.99,1.13,3.02,3.4v6.28h-2.14v-6.16c0-.6-.13-1.05-.39-1.34s-.69-.44-1.28-.44c-.86,0-1.5.39-1.92,1.17v6.77h-2.14v-9.51h2.01Z"/>
      <path class="cls-1" d="M341.65,107.15v2.31h1.68v1.58h-1.68v5.31c0,.36.07.63.22.79s.4.24.77.24c.25,0,.5-.03.75-.09v1.65c-.49.13-.96.2-1.41.2-1.64,0-2.46-.91-2.46-2.72v-5.39h-1.56v-1.58h1.56v-2.31h2.14Z"/>
      <path class="cls-1" d="M350.65,118.98c-.09-.18-.18-.48-.25-.89-.68.71-1.51,1.06-2.5,1.06s-1.73-.27-2.34-.82-.91-1.22-.91-2.02c0-1.01.38-1.79,1.13-2.33s1.83-.81,3.23-.81h1.31v-.62c0-.49-.14-.89-.41-1.18s-.69-.44-1.26-.44c-.49,0-.88.12-1.2.36s-.47.55-.47.93h-2.14c0-.52.17-1.01.52-1.46s.82-.81,1.41-1.07,1.26-.39,1.99-.39c1.11,0,2,.28,2.66.84s1,1.35,1.02,2.36v4.29c0,.86.12,1.54.36,2.05v.15h-2.18ZM348.3,117.44c.42,0,.82-.1,1.19-.31s.65-.48.84-.83v-1.79h-1.15c-.79,0-1.39.14-1.78.41s-.6.67-.6,1.17c0,.41.14.74.41.98s.64.36,1.09.36Z"/>
      <path class="cls-1" d="M357.79,114.9l-.95.98v3.1h-2.14v-13.5h2.14v7.79l.67-.83,2.63-2.96h2.57l-3.53,3.96,3.91,5.55h-2.47l-2.82-4.08Z"/>
      <path class="cls-1" d="M368.29,119.15c-1.35,0-2.45-.43-3.29-1.28s-1.26-1.99-1.26-3.41v-.26c0-.95.18-1.8.55-2.54s.88-1.33,1.54-1.74,1.4-.62,2.21-.62c1.29,0,2.3.41,3,1.24s1.06,2,1.06,3.51v.86h-6.21c.06.79.33,1.41.79,1.86s1.04.69,1.74.69c.98,0,1.78-.4,2.39-1.19l1.15,1.1c-.38.57-.89,1.01-1.52,1.32s-1.35.47-2.14.47ZM368.03,111c-.59,0-1.06.21-1.42.62s-.59.98-.69,1.71h4.07v-.16c-.05-.71-.24-1.26-.57-1.62s-.8-.55-1.39-.55Z"/>
      <path class="cls-1" d="M380.25,109.47l.06.99c.67-.78,1.58-1.17,2.74-1.17,1.27,0,2.14.49,2.61,1.46.69-.97,1.66-1.46,2.92-1.46,1.05,0,1.83.29,2.34.87s.77,1.44.79,2.57v6.25h-2.14v-6.19c0-.6-.13-1.05-.4-1.33s-.7-.42-1.31-.42c-.49,0-.88.13-1.19.39s-.52.6-.65,1.02v6.52s-2.13,0-2.13,0v-6.26c-.03-1.12-.6-1.68-1.71-1.68-.86,0-1.46.35-1.82,1.05v6.89h-2.14v-9.51h2.01Z"/>
      <path class="cls-1" d="M398.09,119.15c-1.35,0-2.45-.43-3.29-1.28s-1.26-1.99-1.26-3.41v-.26c0-.95.18-1.8.55-2.54s.88-1.33,1.54-1.74,1.4-.62,2.21-.62c1.29,0,2.3.41,3,1.24s1.06,2,1.06,3.51v.86h-6.21c.06.79.33,1.41.79,1.86s1.04.69,1.74.69c.98,0,1.78-.4,2.39-1.19l1.15,1.1c-.38.57-.89,1.01-1.52,1.32s-1.35.47-2.14.47ZM397.83,111c-.59,0-1.06.21-1.42.62s-.59.98-.69,1.71h4.07v-.16c-.05-.71-.24-1.26-.57-1.62s-.8-.55-1.39-.55Z"/>
      <path class="cls-1" d="M406.24,107.15v2.31h1.68v1.58h-1.68v5.31c0,.36.07.63.22.79s.4.24.77.24c.25,0,.5-.03.75-.09v1.65c-.49.13-.96.2-1.41.2-1.64,0-2.46-.91-2.46-2.72v-5.39h-1.56v-1.58h1.56v-2.31h2.14Z"/>
      <path class="cls-1" d="M418.94,114.05h-2.48v4.92h-2.22v-12.8h4.5c1.48,0,2.62.33,3.42.99s1.2,1.62,1.2,2.88c0,.86-.21,1.57-.62,2.15s-.99,1.02-1.73,1.33l2.87,5.33v.11h-2.38l-2.57-4.92ZM416.46,112.26h2.29c.75,0,1.34-.19,1.76-.57s.63-.9.63-1.55-.19-1.22-.58-1.59-.97-.57-1.74-.58h-2.35v4.29Z"/>
      <path class="cls-1" d="M429.45,119.15c-1.35,0-2.45-.43-3.29-1.28s-1.26-1.99-1.26-3.41v-.26c0-.95.18-1.8.55-2.54s.88-1.33,1.54-1.74,1.4-.62,2.21-.62c1.29,0,2.3.41,3,1.24s1.06,2,1.06,3.51v.86h-6.21c.06.79.33,1.41.79,1.86s1.04.69,1.74.69c.98,0,1.78-.4,2.39-1.19l1.15,1.1c-.38.57-.89,1.01-1.52,1.32s-1.35.47-2.14.47ZM429.19,111c-.59,0-1.06.21-1.42.62s-.59.98-.69,1.71h4.07v-.16c-.05-.71-.24-1.26-.57-1.62s-.8-.55-1.39-.55Z"/>
      <path class="cls-1" d="M440.25,116.39c0-.38-.16-.67-.47-.87s-.83-.38-1.56-.53-1.33-.35-1.82-.58c-1.07-.52-1.6-1.26-1.6-2.24,0-.82.35-1.51,1.04-2.06s1.57-.83,2.64-.83c1.14,0,2.06.28,2.76.84s1.05,1.29,1.05,2.19h-2.14c0-.41-.15-.75-.46-1.02s-.71-.41-1.21-.41c-.47,0-.85.11-1.15.33s-.44.51-.44.87c0,.33.14.58.41.76s.83.36,1.67.55,1.5.4,1.97.66.83.56,1.06.92.35.79.35,1.3c0,.86-.35,1.55-1.06,2.08s-1.64.8-2.79.8c-.78,0-1.47-.14-2.08-.42s-1.08-.67-1.42-1.16-.51-1.02-.51-1.59h2.07c.03.5.22.89.57,1.16s.82.41,1.4.41.99-.11,1.28-.32.44-.49.44-.84Z"/>
      <path class="cls-1" d="M448.4,119.15c-1.35,0-2.45-.43-3.29-1.28s-1.26-1.99-1.26-3.41v-.26c0-.95.18-1.8.55-2.54s.88-1.33,1.54-1.74,1.4-.62,2.21-.62c1.29,0,2.3.41,3,1.24s1.06,2,1.06,3.51v.86h-6.21c.06.79.33,1.41.79,1.86s1.04.69,1.74.69c.98,0,1.78-.4,2.39-1.19l1.15,1.1c-.38.57-.89,1.01-1.52,1.32s-1.35.47-2.14.47ZM448.14,111c-.59,0-1.06.21-1.42.62s-.59.98-.69,1.71h4.07v-.16c-.05-.71-.24-1.26-.57-1.62s-.8-.55-1.39-.55Z"/>
      <path class="cls-1" d="M459.55,118.98c-.09-.18-.18-.48-.25-.89-.68.71-1.51,1.06-2.5,1.06s-1.73-.27-2.34-.82-.91-1.22-.91-2.02c0-1.01.38-1.79,1.13-2.33s1.83-.81,3.23-.81h1.31v-.62c0-.49-.14-.89-.41-1.18s-.69-.44-1.26-.44c-.49,0-.88.12-1.2.36s-.47.55-.47.93h-2.14c0-.52.17-1.01.52-1.46s.82-.81,1.41-1.07,1.26-.39,1.99-.39c1.11,0,2,.28,2.66.84s1,1.35,1.02,2.36v4.29c0,.86.12,1.54.36,2.05v.15h-2.18ZM457.2,117.44c.42,0,.82-.1,1.19-.31s.65-.48.84-.83v-1.79h-1.15c-.79,0-1.39.14-1.78.41s-.6.67-.6,1.17c0,.41.14.74.41.98s.64.36,1.09.36Z"/>
      <path class="cls-1" d="M468.59,111.42c-.28-.05-.57-.07-.87-.07-.98,0-1.64.38-1.98,1.12v6.5h-2.14v-9.51h2.04l.05,1.06c.52-.83,1.23-1.24,2.14-1.24.3,0,.56.04.76.12v2Z"/>
      <path class="cls-1" d="M473.67,117.45c.53,0,.98-.16,1.33-.47s.54-.69.56-1.15h2.01c-.02.59-.21,1.14-.55,1.66s-.81.92-1.41,1.22-1.23.45-1.92.45c-1.33,0-2.38-.43-3.16-1.29s-1.17-2.05-1.17-3.57v-.22c0-1.45.39-2.61,1.16-3.48s1.83-1.31,3.16-1.31c1.13,0,2.05.33,2.76.99s1.09,1.52,1.12,2.6h-2.01c-.02-.54-.21-.99-.56-1.34s-.79-.53-1.33-.53c-.69,0-1.22.25-1.6.75s-.57,1.26-.57,2.28v.34c0,1.03.19,1.8.56,2.31s.91.76,1.61.76Z"/>
      <path class="cls-1" d="M481.29,110.5c.7-.81,1.58-1.21,2.65-1.21,2.03,0,3.06,1.16,3.08,3.47v6.21h-2.14v-6.13c0-.66-.14-1.12-.43-1.39s-.7-.41-1.25-.41c-.86,0-1.49.38-1.92,1.14v6.79h-2.14v-13.5h2.14v5.03Z"/>
      <path class="cls-1" d="M330.78,137.28c0-.56-.2-1-.59-1.3s-1.11-.61-2.14-.92-1.85-.66-2.46-1.04c-1.17-.73-1.75-1.69-1.75-2.87,0-1.03.42-1.88,1.26-2.55s1.93-1,3.27-1c.89,0,1.68.16,2.38.49s1.25.8,1.64,1.4.6,1.28.6,2.02h-2.21c0-.67-.21-1.19-.63-1.57s-1.02-.57-1.8-.57c-.73,0-1.29.16-1.69.47s-.6.74-.6,1.3c0,.47.22.86.65,1.17s1.15.62,2.14.91,1.8.63,2.4,1.01,1.05.81,1.33,1.3.42,1.06.42,1.72c0,1.07-.41,1.91-1.23,2.54s-1.93.94-3.33.94c-.93,0-1.78-.17-2.55-.51s-1.38-.82-1.81-1.42-.65-1.31-.65-2.11h2.22c0,.73.24,1.29.72,1.69s1.17.6,2.07.6c.77,0,1.35-.16,1.74-.47s.58-.73.58-1.24Z"/>
      <path class="cls-1" d="M340.51,139.64c-.63.74-1.52,1.11-2.67,1.11-1.03,0-1.81-.3-2.34-.91s-.8-1.48-.8-2.62v-6.16h2.14v6.13c0,1.21.5,1.81,1.5,1.81s1.74-.37,2.1-1.12v-6.83h2.14v9.51h-2.01l-.05-.93Z"/>
      <path class="cls-1" d="M353.08,135.92c0,1.47-.33,2.64-1,3.52s-1.56,1.31-2.69,1.31c-1.04,0-1.88-.34-2.5-1.03v4.51h-2.14v-13.17h1.97l.09.97c.63-.76,1.48-1.14,2.56-1.14,1.16,0,2.07.43,2.73,1.3s.99,2.06.99,3.6v.13ZM350.95,135.73c0-.95-.19-1.7-.57-2.26s-.92-.83-1.62-.83c-.87,0-1.5.36-1.88,1.08v4.22c.39.74,1.02,1.11,1.9,1.11.68,0,1.21-.27,1.6-.82s.58-1.38.58-2.49Z"/>
      <path class="cls-1" d="M363.21,135.92c0,1.47-.33,2.64-1,3.52s-1.56,1.31-2.69,1.31c-1.04,0-1.88-.34-2.5-1.03v4.51h-2.14v-13.17h1.97l.09.97c.63-.76,1.48-1.14,2.56-1.14,1.16,0,2.07.43,2.73,1.3s.99,2.06.99,3.6v.13ZM361.09,135.73c0-.95-.19-1.7-.57-2.26s-.92-.83-1.62-.83c-.87,0-1.5.36-1.88,1.08v4.22c.39.74,1.02,1.11,1.9,1.11.68,0,1.21-.27,1.6-.82s.58-1.38.58-2.49Z"/>
      <path class="cls-1" d="M364.62,135.73c0-.93.18-1.77.55-2.52s.89-1.32,1.56-1.72,1.44-.6,2.3-.6c1.28,0,2.32.41,3.12,1.24s1.23,1.92,1.3,3.29v.5c0,.94-.17,1.78-.53,2.51s-.88,1.31-1.55,1.71-1.45.61-2.32.61c-1.34,0-2.42-.45-3.22-1.34s-1.21-2.08-1.21-3.57v-.11ZM366.76,135.92c0,.98.2,1.74.61,2.3s.97.83,1.69.83,1.28-.28,1.68-.84.6-1.39.6-2.47c0-.96-.21-1.72-.62-2.29s-.97-.84-1.68-.84-1.25.28-1.66.83-.62,1.38-.62,2.48Z"/>
      <path class="cls-1" d="M380.25,133.02c-.28-.05-.57-.07-.87-.07-.98,0-1.64.38-1.98,1.12v6.5h-2.14v-9.51h2.04l.05,1.06c.52-.83,1.23-1.24,2.14-1.24.3,0,.56.04.76.12v2Z"/>
      <path class="cls-1" d="M384.71,128.75v2.31h1.68v1.58h-1.68v5.31c0,.36.07.63.22.79s.4.24.77.24c.25,0,.5-.03.75-.09v1.65c-.49.13-.96.2-1.41.2-1.64,0-2.46-.91-2.46-2.72v-5.39h-1.56v-1.58h1.56v-2.31h2.14Z"/>
      <path class="cls-1" d="M392.17,137.12c0-.59.16-1.14.48-1.63s.96-1.08,1.91-1.76c-.5-.63-.85-1.16-1.04-1.6s-.29-.86-.29-1.27c0-1,.3-1.79.91-2.38s1.43-.87,2.46-.87c.93,0,1.69.27,2.29.82s.89,1.23.89,2.03c0,.53-.13,1.02-.4,1.47s-.71.9-1.33,1.34l-.87.63,2.47,2.92c.36-.7.54-1.49.54-2.35h1.85c0,1.58-.37,2.87-1.11,3.88l1.88,2.22h-2.48l-.72-.85c-.91.69-2,1.03-3.27,1.03s-2.28-.34-3.04-1.01-1.14-1.55-1.14-2.62ZM396.4,139.05c.72,0,1.39-.24,2.02-.72l-2.79-3.3-.27.19c-.7.53-1.05,1.14-1.05,1.83,0,.59.19,1.07.57,1.44s.89.55,1.53.55ZM395.22,130.8c0,.49.3,1.11.91,1.85l.98-.67.27-.22c.36-.32.54-.74.54-1.24,0-.33-.13-.62-.38-.86s-.57-.36-.96-.36c-.42,0-.75.14-.99.42s-.37.64-.37,1.06Z"/>
      <path class="cls-1" d="M411.04,140.58h-2.21v-12.8h2.21v12.8Z"/>
      <path class="cls-1" d="M423.02,129.57h-3.99v11h-2.21v-11h-3.96v-1.79h10.15v1.79Z"/>
    </g>
  </g>
  <g>
    <g>
      <rect class="cls-6" x="307.44" y="245.57" width="223.77" height="110.81"/>
      <polygon class="cls-5" points="536.4 250.05 536.4 252.05 536.41 252.05 536.41 360.86 314.64 360.86 314.64 360.86 312.64 360.86 312.64 362.86 538.41 362.86 538.41 250.05 536.4 250.05"/>
    </g>
    <g>
      <rect class="cls-2" x="320.19" y="255.97" width="198.27" height="90"/>
      <path class="cls-1" d="M325.17,291.4l-1.45,1.54v3.99h-2.22v-12.8h2.22v6l1.23-1.52,3.74-4.48h2.69l-4.75,5.67,5.03,7.13h-2.64l-3.85-5.53Z"/>
      <path class="cls-1" d="M334.91,296.92h-2.14v-13.5h2.14v13.5Z"/>
      <path class="cls-1" d="M341.42,297.1c-1.35,0-2.45-.43-3.29-1.28s-1.26-1.99-1.26-3.41v-.26c0-.95.18-1.8.55-2.54s.88-1.33,1.54-1.75,1.4-.62,2.21-.62c1.29,0,2.3.41,3,1.24s1.06,2,1.06,3.51v.86h-6.21c.06.79.33,1.41.79,1.86s1.04.69,1.74.69c.98,0,1.78-.4,2.39-1.19l1.15,1.1c-.38.57-.89,1.01-1.52,1.32s-1.35.47-2.14.47ZM341.16,288.95c-.59,0-1.06.21-1.42.62s-.59.98-.69,1.71h4.07v-.16c-.05-.71-.24-1.25-.57-1.62s-.8-.55-1.39-.55Z"/>
      <path class="cls-1" d="M346.89,284.94c0-.33.1-.6.31-.82s.51-.33.89-.33.69.11.9.33.32.49.32.82-.11.59-.32.8-.51.32-.9.32-.68-.11-.89-.32-.31-.48-.31-.8ZM349.16,296.92h-2.14v-9.51h2.14v9.51Z"/>
      <path class="cls-1" d="M353.47,287.41l.06,1.1c.7-.85,1.63-1.27,2.77-1.27,1.98,0,2.99,1.13,3.02,3.4v6.28h-2.14v-6.16c0-.6-.13-1.05-.39-1.34s-.69-.44-1.28-.44c-.86,0-1.5.39-1.92,1.17v6.77h-2.14v-9.51h2.01Z"/>
      <path class="cls-1" d="M365.69,297.1c-1.35,0-2.45-.43-3.29-1.28s-1.26-1.99-1.26-3.41v-.26c0-.95.18-1.8.55-2.54s.88-1.33,1.54-1.75,1.4-.62,2.21-.62c1.29,0,2.3.41,3,1.24s1.06,2,1.06,3.51v.86h-6.21c.06.79.33,1.41.79,1.86s1.04.69,1.74.69c.98,0,1.78-.4,2.39-1.19l1.15,1.1c-.38.57-.89,1.01-1.52,1.32s-1.35.47-2.14.47ZM365.43,288.95c-.59,0-1.06.21-1.42.62s-.59.98-.69,1.71h4.07v-.16c-.05-.71-.24-1.25-.57-1.62s-.8-.55-1.39-.55Z"/>
      <path class="cls-1" d="M380.62,289.37c-.28-.05-.57-.07-.87-.07-.98,0-1.64.38-1.98,1.12v6.5h-2.14v-9.51h2.04l.05,1.06c.52-.83,1.23-1.24,2.14-1.24.3,0,.56.04.76.12v2Z"/>
      <path class="cls-1" d="M386.16,297.1c-1.35,0-2.45-.43-3.29-1.28s-1.26-1.99-1.26-3.41v-.26c0-.95.18-1.8.55-2.54s.88-1.33,1.54-1.75,1.4-.62,2.21-.62c1.29,0,2.3.41,3,1.24s1.06,2,1.06,3.51v.86h-6.21c.06.79.33,1.41.79,1.86s1.04.69,1.74.69c.98,0,1.78-.4,2.39-1.19l1.15,1.1c-.38.57-.89,1.01-1.52,1.32s-1.35.47-2.14.47ZM385.9,288.95c-.59,0-1.06.21-1.42.62s-.59.98-.69,1.71h4.07v-.16c-.05-.71-.24-1.25-.57-1.62s-.8-.55-1.39-.55Z"/>
      <path class="cls-1" d="M394.72,292.85l-.95.98v3.1h-2.14v-13.5h2.14v7.79l.67-.83,2.63-2.96h2.57l-3.53,3.96,3.91,5.55h-2.47l-2.82-4.08Z"/>
      <path class="cls-1" d="M405.21,297.1c-1.35,0-2.45-.43-3.29-1.28s-1.26-1.99-1.26-3.41v-.26c0-.95.18-1.8.55-2.54s.88-1.33,1.54-1.75,1.4-.62,2.21-.62c1.29,0,2.3.41,3,1.24s1.06,2,1.06,3.51v.86h-6.21c.06.79.33,1.41.79,1.86s1.04.69,1.74.69c.98,0,1.78-.4,2.39-1.19l1.15,1.1c-.38.57-.89,1.01-1.52,1.32s-1.35.47-2.14.47ZM404.96,288.95c-.59,0-1.06.21-1.42.62s-.59.98-.69,1.71h4.07v-.16c-.05-.71-.24-1.25-.57-1.62s-.8-.55-1.39-.55Z"/>
      <path class="cls-1" d="M412.66,287.41l.06,1.1c.7-.85,1.63-1.27,2.77-1.27,1.98,0,2.99,1.13,3.02,3.4v6.28h-2.14v-6.16c0-.6-.13-1.05-.39-1.34s-.69-.44-1.28-.44c-.86,0-1.5.39-1.92,1.17v6.77h-2.14v-9.51h2.01Z"/>
      <path class="cls-1" d="M423.37,285.1v2.31h1.68v1.58h-1.68v5.31c0,.36.07.63.22.79s.4.24.77.24c.25,0,.5-.03.75-.09v1.65c-.49.13-.96.2-1.41.2-1.64,0-2.46-.91-2.46-2.72v-5.39h-1.56v-1.58h1.56v-2.31h2.14Z"/>
      <path class="cls-1" d="M426.68,284.94c0-.33.1-.6.31-.82s.51-.33.89-.33.69.11.9.33.32.49.32.82-.11.59-.32.8-.51.32-.9.32-.68-.11-.89-.32-.31-.48-.31-.8ZM428.95,296.92h-2.14v-9.51h2.14v9.51Z"/>
      <path class="cls-1" d="M433.5,287.41v10.35c0,.97-.24,1.72-.73,2.23s-1.19.77-2.12.77c-.39,0-.77-.05-1.13-.15v-1.69c.22.05.47.08.76.08.71,0,1.07-.39,1.09-1.16v-10.43h2.14ZM431.18,284.94c0-.33.1-.6.31-.82s.51-.33.89-.33.69.11.9.33.32.49.32.82-.11.59-.32.8-.51.32-.9.32-.68-.11-.89-.32-.31-.48-.31-.8Z"/>
      <path class="cls-1" d="M435.38,292.1c0-1.46.34-2.64,1.02-3.53s1.59-1.33,2.73-1.33c1.01,0,1.82.35,2.44,1.05v-4.87h2.14v13.5h-1.93l-.11-.98c-.64.77-1.49,1.16-2.56,1.16s-2.01-.45-2.7-1.34-1.03-2.12-1.03-3.66ZM437.52,292.28c0,.97.19,1.72.56,2.26s.9.81,1.59.81c.87,0,1.51-.39,1.92-1.17v-4.06c-.39-.76-1.03-1.14-1.9-1.14-.69,0-1.22.27-1.6.82s-.56,1.37-.56,2.47Z"/>
      <path class="cls-1" d="M326.97,318.52c-.09-.18-.18-.48-.25-.89-.68.71-1.51,1.06-2.5,1.06s-1.73-.27-2.34-.82-.91-1.22-.91-2.02c0-1.01.38-1.79,1.13-2.33s1.83-.81,3.23-.81h1.31v-.62c0-.49-.14-.89-.41-1.18s-.69-.44-1.26-.44c-.49,0-.88.12-1.2.37s-.47.55-.47.93h-2.14c0-.52.17-1.01.52-1.46s.82-.81,1.41-1.07,1.26-.39,1.99-.39c1.11,0,2,.28,2.66.84s1,1.35,1.02,2.36v4.29c0,.86.12,1.54.36,2.05v.15h-2.18ZM324.62,316.99c.42,0,.82-.1,1.19-.31s.65-.48.84-.83v-1.79h-1.15c-.79,0-1.39.14-1.78.41s-.6.67-.6,1.17c0,.41.14.74.41.98s.64.36,1.09.36Z"/>
      <path class="cls-1" d="M336.71,318.52c-.09-.18-.18-.48-.25-.89-.68.71-1.51,1.06-2.5,1.06s-1.73-.27-2.34-.82-.91-1.22-.91-2.02c0-1.01.38-1.79,1.13-2.33s1.83-.81,3.23-.81h1.31v-.62c0-.49-.14-.89-.41-1.18s-.69-.44-1.26-.44c-.49,0-.88.12-1.2.37s-.47.55-.47.93h-2.14c0-.52.17-1.01.52-1.46s.82-.81,1.41-1.07,1.26-.39,1.99-.39c1.11,0,2,.28,2.66.84s1,1.35,1.02,2.36v4.29c0,.86.12,1.54.36,2.05v.15h-2.18ZM334.36,316.99c.42,0,.82-.1,1.19-.31s.65-.48.84-.83v-1.79h-1.15c-.79,0-1.39.14-1.78.41s-.6.67-.6,1.17c0,.41.14.74.41.98s.64.36,1.09.36Z"/>
      <path class="cls-1" d="M342.75,309.01l.06,1.1c.7-.85,1.63-1.27,2.77-1.27,1.98,0,2.99,1.13,3.02,3.4v6.28h-2.14v-6.16c0-.6-.13-1.05-.39-1.34s-.69-.44-1.28-.44c-.86,0-1.5.39-1.92,1.17v6.77h-2.14v-9.51h2.01Z"/>
      <path class="cls-1" d="M354.13,315.82l2.01-6.8h2.21l-3.3,9.51h-1.85l-3.32-9.51h2.21l2.04,6.8Z"/>
      <path class="cls-1" d="M364.66,310.97c-.28-.05-.57-.07-.87-.07-.98,0-1.64.38-1.98,1.12v6.5h-2.14v-9.51h2.04l.05,1.06c.52-.83,1.23-1.24,2.14-1.24.3,0,.56.04.76.12v2Z"/>
      <path class="cls-1" d="M371.42,318.52c-.09-.18-.18-.48-.25-.89-.68.71-1.51,1.06-2.5,1.06s-1.73-.27-2.34-.82-.91-1.22-.91-2.02c0-1.01.38-1.79,1.13-2.33s1.83-.81,3.23-.81h1.31v-.62c0-.49-.14-.89-.41-1.18s-.69-.44-1.26-.44c-.49,0-.88.12-1.2.37s-.47.55-.47.93h-2.14c0-.52.17-1.01.52-1.46s.82-.81,1.41-1.07,1.26-.39,1.99-.39c1.11,0,2,.28,2.66.84s1,1.35,1.02,2.36v4.29c0,.86.12,1.54.36,2.05v.15h-2.18ZM369.08,316.99c.42,0,.82-.1,1.19-.31s.65-.48.84-.83v-1.79h-1.15c-.79,0-1.39.14-1.78.41s-.6.67-.6,1.17c0,.41.14.74.41.98s.64.36,1.09.36Z"/>
      <path class="cls-1" d="M375.11,313.7c0-1.48.35-2.66,1.04-3.54s1.62-1.32,2.76-1.32c1.08,0,1.94.38,2.56,1.13l.1-.96h1.92v9.22c0,1.25-.39,2.23-1.16,2.95s-1.82,1.08-3.14,1.08c-.7,0-1.38-.14-2.04-.43s-1.17-.67-1.52-1.14l1.01-1.28c.66.78,1.46,1.17,2.43,1.17.71,0,1.27-.19,1.68-.58s.62-.95.62-1.69v-.64c-.62.69-1.44,1.03-2.46,1.03-1.11,0-2.02-.44-2.73-1.33s-1.06-2.11-1.06-3.67ZM377.23,313.88c0,.96.19,1.71.58,2.25s.93.82,1.62.82c.86,0,1.5-.37,1.92-1.11v-4.18c-.4-.72-1.04-1.08-1.9-1.08-.7,0-1.25.28-1.64.83s-.58,1.38-.58,2.46Z"/>
      <path class="cls-1" d="M389.87,318.7c-1.35,0-2.45-.43-3.29-1.28s-1.26-1.99-1.26-3.41v-.26c0-.95.18-1.8.55-2.54s.88-1.33,1.54-1.75,1.4-.62,2.21-.62c1.29,0,2.3.41,3,1.24s1.06,2,1.06,3.51v.86h-6.21c.06.79.33,1.41.79,1.86s1.04.69,1.74.69c.98,0,1.78-.4,2.39-1.19l1.15,1.1c-.38.57-.89,1.01-1.52,1.32s-1.35.47-2.14.47ZM389.62,310.55c-.59,0-1.06.21-1.42.62s-.59.98-.69,1.71h4.07v-.16c-.05-.71-.24-1.25-.57-1.62s-.8-.55-1.39-.55Z"/>
      <path class="cls-1" d="M397.33,309.01l.06,1.1c.7-.85,1.63-1.27,2.77-1.27,1.98,0,2.99,1.13,3.02,3.4v6.28h-2.14v-6.16c0-.6-.13-1.05-.39-1.34s-.69-.44-1.28-.44c-.86,0-1.5.39-1.92,1.17v6.77h-2.14v-9.51h2.01Z"/>
      <path class="cls-1" d="M409.87,313.32c0-1.35.18-2.64.54-3.85s.9-2.3,1.6-3.26,1.45-1.63,2.23-2.02l.42,1.25c-.83.63-1.5,1.58-2.01,2.87s-.79,2.76-.84,4.42v.76c0,1.78.24,3.36.74,4.75s1.2,2.45,2.1,3.18l-.42,1.19c-.79-.39-1.53-1.06-2.24-2.03s-1.24-2.05-1.6-3.26-.54-2.54-.54-3.99Z"/>
      <path class="cls-1" d="M423.01,315.23c0-.56-.2-1-.59-1.3s-1.11-.61-2.14-.92-1.85-.66-2.46-1.04c-1.17-.73-1.75-1.69-1.75-2.87,0-1.03.42-1.88,1.26-2.55s1.93-1,3.27-1c.89,0,1.68.16,2.38.49s1.25.8,1.64,1.4.6,1.28.6,2.02h-2.21c0-.67-.21-1.19-.63-1.57s-1.02-.57-1.8-.57c-.73,0-1.29.16-1.69.47s-.6.74-.6,1.3c0,.47.22.86.65,1.17s1.15.62,2.14.91,1.8.63,2.4,1.01,1.05.81,1.33,1.3.42,1.06.42,1.72c0,1.07-.41,1.92-1.23,2.54s-1.93.94-3.33.94c-.93,0-1.78-.17-2.55-.51s-1.38-.82-1.81-1.42-.65-1.31-.65-2.11h2.22c0,.73.24,1.29.72,1.69s1.17.6,2.07.6c.77,0,1.35-.16,1.74-.47s.58-.73.58-1.24Z"/>
      <path class="cls-1" d="M436.54,305.73v8.55c0,1.36-.44,2.44-1.31,3.23s-2.03,1.19-3.48,1.19-2.63-.39-3.49-1.17-1.29-1.87-1.29-3.26v-8.54h2.21v8.56c0,.86.22,1.51.65,1.96s1.07.68,1.92.68c1.71,0,2.57-.9,2.57-2.71v-8.49h2.21Z"/>
      <path class="cls-1" d="M443.62,313.6h-2.48v4.92h-2.22v-12.8h4.5c1.48,0,2.62.33,3.42.99.8.66,1.2,1.62,1.2,2.88,0,.86-.21,1.57-.62,2.15-.41.58-.99,1.02-1.73,1.33l2.87,5.33v.11h-2.38l-2.57-4.92ZM441.14,311.81h2.29c.75,0,1.34-.19,1.76-.57s.63-.9.63-1.55-.19-1.22-.58-1.59-.97-.57-1.74-.58h-2.35v4.29Z"/>
      <path class="cls-1" d="M457.52,313.1h-5.15v5.42h-2.22v-12.8h8.13v1.79h-5.91v3.81h5.15v1.78Z"/>
      <path class="cls-1" d="M463.95,313.46c0,1.3-.18,2.56-.54,3.77s-.9,2.31-1.63,3.3-1.49,1.68-2.28,2.06l-.42-1.19c.88-.68,1.57-1.72,2.09-3.12s.77-2.99.77-4.79v-.2c0-1.63-.22-3.11-.67-4.45s-1.08-2.41-1.92-3.22l-.27-.25.42-1.2c.75.36,1.48,1.01,2.18,1.93s1.24,1.96,1.62,3.11.59,2.33.63,3.55v.69Z"/>
    </g>
  </g>
  <g>
    <g>
      <rect class="cls-6" x="614.89" y="245.57" width="223.77" height="110.81"/>
      <polygon class="cls-5" points="843.85 250.05 843.85 252.05 843.86 252.05 843.86 360.86 622.09 360.86 622.09 360.86 620.09 360.86 620.09 362.86 845.86 362.86 845.86 250.05 843.85 250.05"/>
    </g>
    <g>
      <rect class="cls-2" x="627.64" y="255.97" width="198.27" height="90"/>
      <path class="cls-1" d="M638.7,292.76c-.13,1.37-.63,2.43-1.51,3.2s-2.05,1.15-3.51,1.15c-1.02,0-1.92-.24-2.69-.72s-1.38-1.17-1.8-2.06-.64-1.92-.66-3.1v-1.2c0-1.21.21-2.27.64-3.19s1.04-1.63,1.84-2.13,1.72-.75,2.77-.75c1.41,0,2.55.38,3.41,1.15s1.36,1.85,1.5,3.25h-2.21c-.11-.92-.37-1.58-.8-1.99s-1.06-.61-1.89-.61c-.97,0-1.71.35-2.23,1.06-.52.71-.78,1.74-.79,3.11v1.13c0,1.38.25,2.44.74,3.17.5.73,1.22,1.09,2.18,1.09.87,0,1.53-.2,1.97-.59s.72-1.05.83-1.96h2.21Z"/>
      <path class="cls-1" d="M640.08,292.08c0-.93.18-1.77.55-2.52s.89-1.32,1.56-1.72,1.44-.6,2.3-.6c1.28,0,2.32.41,3.12,1.24s1.23,1.92,1.3,3.29v.5c0,.94-.17,1.78-.53,2.51s-.88,1.31-1.55,1.71-1.45.61-2.32.61c-1.34,0-2.42-.45-3.22-1.34s-1.21-2.08-1.21-3.57v-.11ZM642.22,292.27c0,.98.2,1.75.61,2.3s.97.83,1.69.83,1.28-.28,1.68-.84.6-1.39.6-2.47c0-.96-.21-1.72-.62-2.29s-.97-.84-1.68-.84-1.25.28-1.66.83-.62,1.38-.62,2.48Z"/>
      <path class="cls-1" d="M653,296.92h-2.14v-13.5h2.14v13.5Z"/>
      <path class="cls-1" d="M657.6,296.92h-2.14v-13.5h2.14v13.5Z"/>
      <path class="cls-1" d="M665.6,296.92c-.09-.18-.18-.48-.25-.89-.68.71-1.51,1.06-2.5,1.06s-1.73-.27-2.34-.82-.91-1.22-.91-2.02c0-1.01.38-1.79,1.13-2.33s1.83-.81,3.23-.81h1.31v-.62c0-.49-.14-.89-.41-1.18s-.69-.44-1.26-.44c-.49,0-.88.12-1.2.37s-.47.55-.47.93h-2.14c0-.52.17-1.01.52-1.46s.82-.81,1.41-1.07,1.26-.39,1.99-.39c1.11,0,2,.28,2.66.84s1,1.35,1.02,2.36v4.29c0,.86.12,1.54.36,2.05v.15h-2.18ZM663.26,295.39c.42,0,.82-.1,1.19-.31s.65-.48.84-.83v-1.79h-1.15c-.79,0-1.39.14-1.78.41s-.6.67-.6,1.17c0,.41.14.74.41.98s.64.36,1.09.36Z"/>
      <path class="cls-1" d="M678.01,292.27c0,1.48-.33,2.65-.99,3.52s-1.57,1.31-2.72,1.31-1.98-.4-2.6-1.2l-.11,1.03h-1.93v-13.5h2.14v4.9c.62-.73,1.44-1.09,2.49-1.09,1.16,0,2.07.43,2.73,1.29s.99,2.07.99,3.61v.12ZM675.87,292.08c0-1.03-.18-1.8-.54-2.32s-.89-.77-1.58-.77c-.93,0-1.58.4-1.95,1.21v3.92c.38.83,1.04,1.24,1.97,1.24.67,0,1.18-.25,1.55-.75s.55-1.25.56-2.26v-.27Z"/>
      <path class="cls-1" d="M679.4,292.08c0-.93.18-1.77.55-2.52s.89-1.32,1.56-1.72,1.44-.6,2.3-.6c1.28,0,2.32.41,3.12,1.24s1.23,1.92,1.3,3.29v.5c0,.94-.17,1.78-.53,2.51s-.88,1.31-1.55,1.71-1.45.61-2.32.61c-1.34,0-2.42-.45-3.22-1.34s-1.21-2.08-1.21-3.57v-.11ZM681.53,292.27c0,.98.2,1.75.61,2.3s.97.83,1.69.83,1.28-.28,1.68-.84.6-1.39.6-2.47c0-.96-.21-1.72-.62-2.29s-.97-.84-1.68-.84-1.25.28-1.66.83-.62,1.38-.62,2.48Z"/>
      <path class="cls-1" d="M695.02,289.37c-.28-.05-.57-.07-.87-.07-.98,0-1.64.38-1.98,1.12v6.5h-2.14v-9.51h2.04l.05,1.06c.52-.83,1.23-1.24,2.14-1.24.3,0,.56.04.76.12v2Z"/>
      <path class="cls-1" d="M701.79,296.92c-.09-.18-.18-.48-.25-.89-.68.71-1.51,1.06-2.5,1.06s-1.73-.27-2.34-.82-.91-1.22-.91-2.02c0-1.01.38-1.79,1.13-2.33s1.83-.81,3.23-.81h1.31v-.62c0-.49-.14-.89-.41-1.18s-.69-.44-1.26-.44c-.49,0-.88.12-1.2.37s-.47.55-.47.93h-2.14c0-.52.17-1.01.52-1.46s.82-.81,1.41-1.07,1.26-.39,1.99-.39c1.11,0,2,.28,2.66.84s1,1.35,1.02,2.36v4.29c0,.86.12,1.54.36,2.05v.15h-2.18ZM699.44,295.39c.42,0,.82-.1,1.19-.31s.65-.48.84-.83v-1.79h-1.15c-.79,0-1.39.14-1.78.41s-.6.67-.6,1.17c0,.41.14.74.41.98s.64.36,1.09.36Z"/>
      <path class="cls-1" d="M708.52,285.1v2.31h1.68v1.58h-1.68v5.31c0,.36.07.63.21.79s.4.24.77.24c.25,0,.5-.03.75-.09v1.65c-.49.13-.96.2-1.41.2-1.64,0-2.46-.91-2.46-2.72v-5.39h-1.56v-1.58h1.56v-2.31h2.14Z"/>
      <path class="cls-1" d="M711.84,284.94c0-.33.1-.6.31-.82s.51-.33.89-.33.69.11.9.33.32.49.32.82-.11.59-.32.8-.51.32-.9.32-.68-.11-.89-.32-.31-.48-.31-.8ZM714.1,296.92h-2.14v-9.51h2.14v9.51Z"/>
      <path class="cls-1" d="M720.62,297.1c-1.35,0-2.45-.43-3.29-1.28s-1.26-1.99-1.26-3.41v-.26c0-.95.18-1.8.55-2.54s.88-1.33,1.54-1.75,1.4-.62,2.21-.62c1.29,0,2.29.41,3,1.24s1.06,2,1.06,3.51v.86h-6.21c.06.79.33,1.41.79,1.86s1.04.69,1.74.69c.98,0,1.78-.4,2.39-1.19l1.15,1.1c-.38.57-.89,1.01-1.53,1.32s-1.35.47-2.14.47ZM720.36,288.95c-.59,0-1.06.21-1.42.62s-.59.98-.69,1.71h4.07v-.16c-.05-.71-.24-1.25-.57-1.62s-.8-.55-1.39-.55Z"/>
      <path class="cls-1" d="M736.25,296.92c-.09-.18-.18-.48-.25-.89-.68.71-1.51,1.06-2.5,1.06s-1.73-.27-2.34-.82-.91-1.22-.91-2.02c0-1.01.38-1.79,1.13-2.33s1.83-.81,3.23-.81h1.31v-.62c0-.49-.14-.89-.41-1.18s-.69-.44-1.26-.44c-.49,0-.88.12-1.2.37s-.47.55-.47.93h-2.14c0-.52.17-1.01.52-1.46s.82-.81,1.41-1.07,1.26-.39,1.99-.39c1.11,0,2,.28,2.66.84s1,1.35,1.02,2.36v4.29c0,.86.12,1.54.36,2.05v.15h-2.18ZM733.9,295.39c.42,0,.82-.1,1.19-.31s.65-.48.84-.83v-1.79h-1.15c-.79,0-1.39.14-1.78.41s-.6.67-.6,1.17c0,.41.14.74.41.98s.64.36,1.09.36Z"/>
      <path class="cls-1" d="M745.99,296.92c-.09-.18-.18-.48-.25-.89-.68.71-1.51,1.06-2.5,1.06s-1.73-.27-2.34-.82-.91-1.22-.91-2.02c0-1.01.38-1.79,1.13-2.33s1.83-.81,3.23-.81h1.31v-.62c0-.49-.14-.89-.41-1.18s-.69-.44-1.26-.44c-.49,0-.88.12-1.2.37s-.47.55-.47.93h-2.14c0-.52.17-1.01.52-1.46s.82-.81,1.41-1.07,1.26-.39,1.99-.39c1.11,0,2,.28,2.66.84s1,1.35,1.02,2.36v4.29c0,.86.12,1.54.36,2.05v.15h-2.18ZM743.64,295.39c.42,0,.82-.1,1.19-.31s.65-.48.84-.83v-1.79h-1.15c-.79,0-1.39.14-1.78.41s-.6.67-.6,1.17c0,.41.14.74.41.98s.64.36,1.09.36Z"/>
      <path class="cls-1" d="M752.03,287.41l.06,1.1c.7-.85,1.63-1.27,2.77-1.27,1.98,0,2.99,1.13,3.02,3.4v6.28h-2.14v-6.16c0-.6-.13-1.05-.39-1.34s-.69-.44-1.28-.44c-.86,0-1.5.39-1.92,1.17v6.77h-2.14v-9.51h2.01Z"/>
      <path class="cls-1" d="M762.06,287.41l.06.99c.67-.78,1.58-1.17,2.74-1.17,1.27,0,2.14.49,2.61,1.46.69-.97,1.66-1.46,2.92-1.46,1.05,0,1.83.29,2.34.87s.78,1.44.79,2.57v6.25h-2.14v-6.19c0-.6-.13-1.05-.4-1.33s-.7-.42-1.31-.42c-.49,0-.88.13-1.19.39s-.52.6-.65,1.02v6.52s-2.13,0-2.13,0v-6.26c-.03-1.12-.6-1.68-1.71-1.68-.86,0-1.46.35-1.82,1.05v6.89h-2.14v-9.51h2.01Z"/>
      <path class="cls-1" d="M781.4,296.92c-.09-.18-.18-.48-.25-.89-.68.71-1.51,1.06-2.5,1.06s-1.73-.27-2.34-.82-.91-1.22-.91-2.02c0-1.01.38-1.79,1.13-2.33s1.83-.81,3.23-.81h1.31v-.62c0-.49-.14-.89-.41-1.18s-.69-.44-1.26-.44c-.49,0-.88.12-1.2.37s-.47.55-.47.93h-2.14c0-.52.17-1.01.52-1.46s.82-.81,1.41-1.07,1.26-.39,1.99-.39c1.11,0,2,.28,2.66.84s1,1.35,1.02,2.36v4.29c0,.86.12,1.54.36,2.05v.15h-2.18ZM779.05,295.39c.42,0,.82-.1,1.19-.31s.65-.48.84-.83v-1.79h-1.15c-.79,0-1.39.14-1.78.41s-.6.67-.6,1.17c0,.41.14.74.41.98s.64.36,1.09.36Z"/>
      <path class="cls-1" d="M788.55,292.85l-.95.98v3.1h-2.14v-13.5h2.14v7.79l.67-.83,2.63-2.96h2.57l-3.53,3.96,3.91,5.55h-2.47l-2.82-4.08Z"/>
      <path class="cls-1" d="M799.04,297.1c-1.35,0-2.45-.43-3.29-1.28s-1.26-1.99-1.26-3.41v-.26c0-.95.18-1.8.55-2.54s.88-1.33,1.54-1.75,1.4-.62,2.21-.62c1.29,0,2.29.41,3,1.24s1.06,2,1.06,3.51v.86h-6.21c.06.79.33,1.41.79,1.86s1.04.69,1.74.69c.98,0,1.78-.4,2.39-1.19l1.15,1.1c-.38.57-.89,1.01-1.53,1.32s-1.35.47-2.14.47ZM798.79,288.95c-.59,0-1.06.21-1.42.62s-.59.98-.69,1.71h4.07v-.16c-.05-.71-.24-1.25-.57-1.62s-.8-.55-1.39-.55Z"/>
      <path class="cls-1" d="M806.49,287.41l.06,1.1c.7-.85,1.63-1.27,2.77-1.27,1.98,0,2.99,1.13,3.02,3.4v6.28h-2.14v-6.16c0-.6-.13-1.05-.39-1.34s-.69-.44-1.28-.44c-.86,0-1.5.39-1.92,1.17v6.77h-2.14v-9.51h2.01Z"/>
      <path class="cls-1" d="M628.76,313.32c0-1.35.18-2.64.54-3.85s.9-2.3,1.6-3.26,1.45-1.63,2.23-2.02l.42,1.25c-.83.63-1.5,1.58-2.01,2.87s-.79,2.76-.84,4.42v.76c0,1.78.24,3.36.74,4.75s1.2,2.45,2.11,3.18l-.42,1.19c-.79-.39-1.53-1.06-2.24-2.03s-1.24-2.05-1.6-3.26-.54-2.54-.54-3.99Z"/>
      <path class="cls-1" d="M641.9,315.23c0-.56-.2-1-.59-1.3s-1.11-.61-2.14-.92-1.85-.66-2.46-1.04c-1.17-.73-1.75-1.69-1.75-2.87,0-1.03.42-1.88,1.26-2.55s1.93-1,3.27-1c.89,0,1.68.16,2.38.49s1.25.8,1.64,1.4.6,1.28.6,2.02h-2.21c0-.67-.21-1.19-.63-1.57s-1.02-.57-1.8-.57c-.73,0-1.29.16-1.69.47s-.6.74-.6,1.3c0,.47.22.86.65,1.17s1.15.62,2.14.91,1.8.63,2.4,1.01,1.05.81,1.33,1.3.42,1.06.42,1.72c0,1.07-.41,1.92-1.23,2.54s-1.93.94-3.33.94c-.93,0-1.78-.17-2.55-.51s-1.38-.82-1.81-1.42-.65-1.31-.65-2.11h2.22c0,.73.24,1.29.72,1.69s1.17.6,2.07.6c.77,0,1.35-.16,1.74-.47s.58-.73.58-1.24Z"/>
      <path class="cls-1" d="M650.78,313.6h-2.48v4.92h-2.22v-12.8h4.5c1.48,0,2.62.33,3.42.99.8.66,1.2,1.62,1.2,2.88,0,.86-.21,1.57-.62,2.15-.41.58-.99,1.02-1.73,1.33l2.87,5.33v.11h-2.38l-2.57-4.92ZM648.3,311.81h2.29c.75,0,1.34-.19,1.76-.57s.63-.9.63-1.55-.2-1.22-.58-1.59-.97-.57-1.74-.58h-2.35v4.29Z"/>
      <path class="cls-1" d="M664.47,315.54h-4.96l-1.04,2.98h-2.31l4.83-12.8h2l4.84,12.8h-2.32l-1.05-2.98ZM660.14,313.75h3.71l-1.85-5.31-1.85,5.31Z"/>
      <path class="cls-1" d="M672.17,305.73l3.69,9.81,3.68-9.81h2.87v12.8h-2.21v-4.22l.22-5.64-3.78,9.86h-1.59l-3.77-9.85.22,5.63v4.22h-2.21v-12.8h2.88Z"/>
      <path class="cls-1" d="M688.96,313.46c0,1.3-.18,2.56-.54,3.77s-.9,2.31-1.63,3.3-1.49,1.68-2.28,2.06l-.42-1.19c.88-.68,1.57-1.72,2.09-3.12s.77-2.99.77-4.79v-.2c0-1.63-.22-3.11-.67-4.45s-1.08-2.41-1.92-3.22l-.27-.25.42-1.2c.75.36,1.48,1.01,2.18,1.93s1.24,1.96,1.62,3.11.59,2.33.63,3.55v.69Z"/>
    </g>
  </g>
  <g>
    <g>
      <rect class="cls-6" x="922.33" y="245.57" width="223.77" height="110.81"/>
      <polygon class="cls-5" points="1151.29 250.05 1151.29 252.05 1151.3 252.05 1151.3 360.86 929.53 360.86 929.53 360.86 927.53 360.86 927.53 362.86 1153.3 362.86 1153.3 250.05 1151.29 250.05"/>
    </g>
    <g>
      <rect class="cls-2" x="935.08" y="255.97" width="198.27" height="90"/>
      <path class="cls-1" d="M938.73,296.92h-2.21v-12.8h2.21v12.8Z"/>
      <path class="cls-1" d="M943.23,287.41l.06,1.1c.7-.85,1.63-1.27,2.77-1.27,1.98,0,2.99,1.13,3.02,3.4v6.28h-2.14v-6.16c0-.6-.13-1.05-.39-1.34s-.69-.44-1.28-.44c-.86,0-1.5.39-1.92,1.17v6.77h-2.14v-9.51h2.01Z"/>
      <path class="cls-1" d="M953.54,296.92h-2.14v-13.5h2.14v13.5Z"/>
      <path class="cls-1" d="M955.46,292.08c0-.93.18-1.77.55-2.52s.89-1.32,1.56-1.72,1.44-.6,2.3-.6c1.28,0,2.33.41,3.12,1.24s1.23,1.92,1.3,3.29v.5c0,.94-.17,1.78-.53,2.51s-.88,1.31-1.55,1.71-1.45.61-2.33.61c-1.34,0-2.42-.45-3.22-1.34s-1.21-2.08-1.21-3.57v-.11ZM957.6,292.27c0,.98.2,1.75.61,2.3s.97.83,1.69.83,1.28-.28,1.68-.84.6-1.39.6-2.47c0-.96-.21-1.72-.62-2.29s-.97-.84-1.68-.84-1.25.28-1.66.83-.62,1.38-.62,2.48Z"/>
      <path class="cls-1" d="M965.73,292.1c0-1.48.35-2.66,1.04-3.54s1.62-1.32,2.76-1.32c1.08,0,1.94.38,2.56,1.13l.1-.96h1.92v9.22c0,1.25-.39,2.23-1.16,2.95s-1.82,1.08-3.14,1.08c-.7,0-1.38-.14-2.04-.43s-1.17-.67-1.52-1.14l1.01-1.28c.66.78,1.46,1.17,2.43,1.17.71,0,1.27-.19,1.68-.58s.62-.95.62-1.69v-.64c-.62.69-1.44,1.03-2.46,1.03-1.11,0-2.02-.44-2.73-1.33s-1.06-2.11-1.06-3.67ZM967.86,292.28c0,.96.2,1.71.58,2.25s.93.82,1.62.82c.86,0,1.5-.37,1.92-1.11v-4.18c-.4-.72-1.04-1.08-1.9-1.08-.7,0-1.25.28-1.64.83s-.58,1.38-.58,2.46Z"/>
      <path class="cls-1" d="M975.94,292.1c0-1.48.35-2.66,1.04-3.54s1.62-1.32,2.76-1.32c1.08,0,1.94.38,2.56,1.13l.1-.96h1.92v9.22c0,1.25-.39,2.23-1.16,2.95s-1.82,1.08-3.14,1.08c-.7,0-1.38-.14-2.04-.43s-1.17-.67-1.52-1.14l1.01-1.28c.66.78,1.46,1.17,2.43,1.17.71,0,1.27-.19,1.68-.58s.62-.95.62-1.69v-.64c-.62.69-1.44,1.03-2.46,1.03-1.11,0-2.02-.44-2.73-1.33s-1.06-2.11-1.06-3.67ZM978.07,292.28c0,.96.2,1.71.58,2.25s.93.82,1.62.82c.86,0,1.5-.37,1.92-1.11v-4.18c-.4-.72-1.04-1.08-1.9-1.08-.7,0-1.25.28-1.64.83s-.58,1.38-.58,2.46Z"/>
      <path class="cls-1" d="M990.7,297.1c-1.35,0-2.45-.43-3.29-1.28s-1.26-1.99-1.26-3.41v-.26c0-.95.18-1.8.55-2.54s.88-1.33,1.54-1.75,1.4-.62,2.21-.62c1.29,0,2.3.41,3,1.24s1.06,2,1.06,3.51v.86h-6.21c.06.79.33,1.41.79,1.86s1.04.69,1.74.69c.98,0,1.78-.4,2.39-1.19l1.15,1.1c-.38.57-.89,1.01-1.52,1.32s-1.35.47-2.14.47ZM990.45,288.95c-.59,0-1.06.21-1.42.62s-.59.98-.69,1.71h4.07v-.16c-.05-.71-.24-1.25-.57-1.62s-.8-.55-1.39-.55Z"/>
      <path class="cls-1" d="M998.16,287.41l.06,1.1c.7-.85,1.63-1.27,2.77-1.27,1.98,0,2.99,1.13,3.02,3.4v6.28h-2.14v-6.16c0-.6-.13-1.05-.39-1.34s-.69-.44-1.28-.44c-.86,0-1.5.39-1.92,1.17v6.77h-2.14v-9.51h2.01Z"/>
      <path class="cls-1" d="M1010.27,292.08c0-.93.18-1.77.55-2.52s.89-1.32,1.56-1.72,1.44-.6,2.3-.6c1.28,0,2.33.41,3.12,1.24s1.23,1.92,1.3,3.29v.5c0,.94-.17,1.78-.53,2.51s-.88,1.31-1.55,1.71-1.45.61-2.33.61c-1.34,0-2.42-.45-3.22-1.34s-1.21-2.08-1.21-3.57v-.11ZM1012.4,292.27c0,.98.2,1.75.61,2.3s.97.83,1.69.83,1.28-.28,1.68-.84.6-1.39.6-2.47c0-.96-.21-1.72-.62-2.29s-.97-.84-1.68-.84-1.25.28-1.66.83-.62,1.38-.62,2.48Z"/>
      <path class="cls-1" d="M1029.24,292.27c0,1.47-.33,2.64-1,3.52s-1.56,1.31-2.69,1.31c-1.04,0-1.88-.34-2.5-1.03v4.51h-2.14v-13.17h1.97l.09.97c.63-.76,1.48-1.14,2.56-1.14,1.16,0,2.07.43,2.73,1.3s.99,2.06.99,3.6v.13ZM1027.12,292.08c0-.95-.19-1.7-.57-2.26s-.92-.83-1.62-.83c-.87,0-1.5.36-1.88,1.08v4.22c.39.74,1.02,1.11,1.9,1.11.68,0,1.21-.27,1.6-.82s.58-1.38.58-2.49Z"/>
      <path class="cls-1" d="M1040.44,292h-2.48v4.92h-2.22v-12.8h4.5c1.48,0,2.62.33,3.42.99.8.66,1.2,1.62,1.2,2.88,0,.86-.21,1.57-.62,2.15-.41.58-.99,1.02-1.73,1.33l2.87,5.33v.11h-2.38l-2.57-4.92ZM1037.96,290.21h2.29c.75,0,1.34-.19,1.76-.57s.63-.9.63-1.55-.19-1.22-.58-1.59-.97-.57-1.75-.58h-2.35v4.29Z"/>
      <path class="cls-1" d="M1050.95,297.1c-1.35,0-2.45-.43-3.29-1.28s-1.26-1.99-1.26-3.41v-.26c0-.95.18-1.8.55-2.54s.88-1.33,1.54-1.75,1.4-.62,2.21-.62c1.29,0,2.3.41,3,1.24s1.06,2,1.06,3.51v.86h-6.21c.06.79.33,1.41.79,1.86s1.04.69,1.74.69c.98,0,1.78-.4,2.39-1.19l1.15,1.1c-.38.57-.89,1.01-1.52,1.32s-1.35.47-2.14.47ZM1050.7,288.95c-.59,0-1.06.21-1.42.62s-.59.98-.69,1.71h4.07v-.16c-.05-.71-.24-1.25-.57-1.62s-.8-.55-1.39-.55Z"/>
      <path class="cls-1" d="M1061.76,294.34c0-.38-.16-.67-.47-.87s-.83-.38-1.56-.53-1.33-.35-1.82-.58c-1.07-.52-1.6-1.26-1.6-2.24,0-.82.35-1.51,1.04-2.06s1.57-.83,2.64-.83c1.14,0,2.06.28,2.76.84s1.05,1.29,1.05,2.19h-2.14c0-.41-.15-.75-.46-1.02s-.71-.41-1.21-.41c-.47,0-.85.11-1.15.33s-.44.51-.44.87c0,.33.14.58.41.76s.83.37,1.67.55,1.5.4,1.97.66.83.56,1.06.92.35.79.35,1.3c0,.86-.35,1.55-1.06,2.08s-1.64.79-2.79.79c-.78,0-1.47-.14-2.08-.42s-1.08-.67-1.42-1.16-.51-1.02-.51-1.59h2.07c.03.5.22.89.57,1.17s.82.41,1.4.41.99-.11,1.28-.32.44-.49.44-.84Z"/>
      <path class="cls-1" d="M1069.9,297.1c-1.35,0-2.45-.43-3.29-1.28s-1.26-1.99-1.26-3.41v-.26c0-.95.18-1.8.55-2.54s.88-1.33,1.54-1.75,1.4-.62,2.21-.62c1.29,0,2.3.41,3,1.24s1.06,2,1.06,3.51v.86h-6.21c.06.79.33,1.41.79,1.86s1.04.69,1.74.69c.98,0,1.78-.4,2.39-1.19l1.15,1.1c-.38.57-.89,1.01-1.52,1.32s-1.35.47-2.14.47ZM1069.65,288.95c-.59,0-1.06.21-1.42.62s-.59.98-.69,1.71h4.07v-.16c-.05-.71-.24-1.25-.57-1.62s-.8-.55-1.39-.55Z"/>
      <path class="cls-1" d="M1081.06,296.92c-.09-.18-.18-.48-.25-.89-.68.71-1.51,1.06-2.5,1.06s-1.73-.27-2.34-.82-.91-1.22-.91-2.02c0-1.01.38-1.79,1.13-2.33s1.83-.81,3.23-.81h1.31v-.62c0-.49-.14-.89-.41-1.18s-.69-.44-1.26-.44c-.49,0-.88.12-1.2.37s-.47.55-.47.93h-2.14c0-.52.17-1.01.52-1.46s.82-.81,1.41-1.07,1.26-.39,1.99-.39c1.11,0,2,.28,2.66.84s1,1.35,1.02,2.36v4.29c0,.86.12,1.54.36,2.05v.15h-2.18ZM1078.71,295.39c.42,0,.82-.1,1.19-.31s.65-.48.84-.83v-1.79h-1.15c-.79,0-1.39.14-1.78.41s-.6.67-.6,1.17c0,.41.14.74.41.98s.64.36,1.09.36Z"/>
      <path class="cls-1" d="M1090.09,289.37c-.28-.05-.57-.07-.87-.07-.98,0-1.64.38-1.98,1.12v6.5h-2.14v-9.51h2.04l.05,1.06c.52-.83,1.23-1.24,2.14-1.24.3,0,.56.04.76.12v2Z"/>
      <path class="cls-1" d="M1095.18,295.4c.53,0,.98-.16,1.33-.47s.54-.69.56-1.15h2.01c-.02.59-.21,1.14-.55,1.66s-.81.92-1.41,1.22-1.23.45-1.92.45c-1.33,0-2.38-.43-3.16-1.29s-1.17-2.05-1.17-3.57v-.22c0-1.45.39-2.61,1.16-3.48s1.83-1.31,3.16-1.31c1.13,0,2.05.33,2.76.99s1.08,1.52,1.12,2.6h-2.01c-.02-.54-.21-.99-.56-1.34s-.79-.53-1.33-.53c-.69,0-1.22.25-1.6.75s-.57,1.26-.57,2.28v.34c0,1.03.19,1.8.56,2.31s.91.76,1.61.76Z"/>
      <path class="cls-1" d="M1102.8,288.45c.7-.81,1.58-1.21,2.65-1.21,2.03,0,3.06,1.16,3.08,3.47v6.21h-2.14v-6.13c0-.66-.14-1.12-.43-1.39s-.7-.41-1.25-.41c-.86,0-1.49.38-1.92,1.14v6.79h-2.14v-13.5h2.14v5.03Z"/>
      <path class="cls-1" d="M946.14,314.36c-.13,1.37-.63,2.43-1.51,3.2s-2.05,1.15-3.51,1.15c-1.02,0-1.92-.24-2.69-.72s-1.38-1.17-1.8-2.06-.64-1.92-.66-3.1v-1.2c0-1.21.21-2.27.64-3.19s1.04-1.63,1.84-2.13,1.72-.75,2.77-.75c1.41,0,2.55.38,3.41,1.15s1.36,1.85,1.5,3.25h-2.21c-.11-.92-.37-1.58-.8-1.99s-1.06-.61-1.89-.61c-.97,0-1.71.35-2.23,1.06-.52.71-.78,1.74-.8,3.11v1.13c0,1.38.25,2.44.74,3.17.5.73,1.22,1.09,2.17,1.09.87,0,1.53-.2,1.97-.59s.72-1.05.83-1.96h2.21Z"/>
      <path class="cls-1" d="M950.2,318.52h-2.14v-13.5h2.14v13.5Z"/>
      <path class="cls-1" d="M952.12,313.68c0-.93.18-1.77.55-2.52s.89-1.32,1.56-1.72,1.44-.6,2.3-.6c1.28,0,2.33.41,3.12,1.24s1.23,1.92,1.3,3.29v.5c0,.94-.17,1.78-.53,2.51s-.88,1.31-1.55,1.71-1.45.61-2.33.61c-1.34,0-2.42-.45-3.22-1.34s-1.21-2.08-1.21-3.57v-.11ZM954.26,313.87c0,.98.2,1.75.61,2.3s.97.83,1.69.83,1.28-.28,1.68-.84.6-1.39.6-2.47c0-.96-.21-1.72-.62-2.29s-.97-.84-1.68-.84-1.25.28-1.66.83-.62,1.38-.62,2.48Z"/>
      <path class="cls-1" d="M968.53,317.59c-.63.74-1.52,1.11-2.67,1.11-1.03,0-1.81-.3-2.34-.91s-.8-1.48-.8-2.62v-6.16h2.14v6.13c0,1.21.5,1.81,1.5,1.81s1.74-.37,2.1-1.12v-6.83h2.14v9.51h-2.01l-.05-.93Z"/>
      <path class="cls-1" d="M972.37,313.7c0-1.46.34-2.64,1.02-3.53s1.59-1.33,2.73-1.33c1.01,0,1.82.35,2.44,1.05v-4.87h2.14v13.5h-1.93l-.11-.98c-.64.77-1.49,1.16-2.56,1.16s-2.01-.45-2.7-1.34-1.03-2.12-1.03-3.66ZM974.51,313.88c0,.97.19,1.72.56,2.26s.9.81,1.59.81c.87,0,1.51-.39,1.92-1.17v-4.06c-.39-.76-1.03-1.14-1.9-1.14-.69,0-1.22.27-1.6.82s-.56,1.37-.56,2.47Z"/>
    </g>
  </g>
  <g>
    <g>
      <rect class="cls-6" x="1229.77" y="245.57" width="223.77" height="110.81"/>
      <polygon class="cls-5" points="1458.73 250.05 1458.73 252.05 1458.74 252.05 1458.74 360.86 1236.97 360.86 1236.97 360.86 1234.97 360.86 1234.97 362.86 1460.74 362.86 1460.74 250.05 1458.73 250.05"/>
    </g>
    <g>
      <rect class="cls-2" x="1242.52" y="253.5" width="198.27" height="90"/>
      <path class="cls-1" d="M1253.86,302.09l1.97-9.63h2.21l-2.95,12.8h-2.13l-2.43-9.34-2.49,9.34h-2.14l-2.95-12.8h2.21l1.99,9.62,2.44-9.62h1.86l2.42,9.63Z"/>
      <path class="cls-1" d="M1258.78,300.41c0-.93.18-1.77.55-2.52s.89-1.32,1.56-1.72,1.44-.6,2.3-.6c1.28,0,2.32.41,3.12,1.24s1.23,1.92,1.3,3.29v.5c0,.94-.17,1.78-.53,2.51s-.88,1.31-1.55,1.71-1.45.61-2.32.61c-1.34,0-2.42-.45-3.22-1.34s-1.21-2.08-1.21-3.57v-.11ZM1260.92,300.59c0,.98.2,1.75.61,2.3s.97.83,1.69.83,1.28-.28,1.68-.84.6-1.39.6-2.47c0-.96-.21-1.72-.62-2.29s-.97-.84-1.68-.84-1.25.28-1.66.83-.62,1.38-.62,2.48Z"/>
      <path class="cls-1" d="M1274.41,297.69c-.28-.05-.57-.07-.87-.07-.98,0-1.64.38-1.98,1.12v6.5h-2.14v-9.51h2.04l.05,1.06c.52-.83,1.23-1.24,2.14-1.24.3,0,.56.04.76.12v2Z"/>
      <path class="cls-1" d="M1278.85,301.17l-.95.98v3.1h-2.14v-13.5h2.14v7.79l.67-.83,2.63-2.96h2.57l-3.53,3.96,3.91,5.55h-2.47l-2.82-4.08Z"/>
      <path class="cls-1" d="M1290.48,302.67c0-.38-.16-.67-.47-.87s-.83-.38-1.56-.53-1.33-.35-1.82-.58c-1.07-.52-1.6-1.26-1.6-2.24,0-.82.35-1.51,1.04-2.06s1.57-.83,2.64-.83c1.14,0,2.05.28,2.75.84s1.05,1.29,1.05,2.19h-2.14c0-.41-.15-.75-.46-1.02s-.71-.41-1.21-.41c-.47,0-.85.11-1.15.33s-.44.51-.44.87c0,.33.14.58.41.76s.83.37,1.67.55,1.5.4,1.97.66.83.56,1.06.92.35.79.35,1.3c0,.86-.35,1.55-1.06,2.08s-1.64.79-2.79.79c-.78,0-1.47-.14-2.08-.42s-1.08-.67-1.42-1.16-.51-1.02-.51-1.59h2.07c.03.5.22.89.57,1.17s.82.41,1.4.41.99-.11,1.28-.32.44-.49.44-.84Z"/>
      <path class="cls-1" d="M1302.77,300.59c0,1.47-.33,2.64-1,3.52s-1.56,1.31-2.69,1.31c-1.04,0-1.88-.34-2.5-1.03v4.51h-2.14v-13.17h1.97l.09.97c.63-.76,1.48-1.14,2.56-1.14,1.16,0,2.07.43,2.73,1.3s.99,2.06.99,3.6v.13ZM1300.65,300.41c0-.95-.19-1.7-.57-2.26s-.92-.83-1.62-.83c-.87,0-1.5.36-1.88,1.08v4.22c.39.74,1.02,1.11,1.9,1.11.68,0,1.21-.27,1.59-.82s.58-1.38.58-2.49Z"/>
      <path class="cls-1" d="M1310.26,305.25c-.09-.18-.18-.48-.25-.89-.68.71-1.51,1.06-2.5,1.06s-1.73-.27-2.34-.82-.91-1.22-.91-2.02c0-1.01.38-1.79,1.13-2.33s1.83-.81,3.23-.81h1.31v-.62c0-.49-.14-.89-.41-1.18s-.69-.44-1.26-.44c-.49,0-.88.12-1.2.37s-.47.55-.47.93h-2.14c0-.52.17-1.01.52-1.46s.82-.81,1.41-1.07,1.26-.39,1.99-.39c1.11,0,2,.28,2.66.84s1,1.35,1.02,2.36v4.29c0,.86.12,1.54.36,2.05v.15h-2.18ZM1307.91,303.71c.42,0,.82-.1,1.19-.31s.65-.48.84-.83v-1.79h-1.15c-.79,0-1.39.14-1.78.41s-.6.67-.6,1.17c0,.41.14.74.41.98s.64.36,1.09.36Z"/>
      <path class="cls-1" d="M1318.22,303.72c.53,0,.98-.16,1.33-.47s.54-.69.56-1.15h2.01c-.02.59-.21,1.14-.55,1.66s-.81.92-1.41,1.22-1.23.45-1.92.45c-1.33,0-2.38-.43-3.16-1.29s-1.17-2.05-1.17-3.57v-.22c0-1.45.39-2.61,1.16-3.48s1.83-1.31,3.16-1.31c1.13,0,2.05.33,2.76.99s1.09,1.52,1.12,2.6h-2.01c-.02-.54-.21-.99-.56-1.34s-.79-.53-1.33-.53c-.69,0-1.22.25-1.6.75s-.57,1.26-.57,2.28v.34c0,1.03.19,1.8.56,2.31s.91.76,1.61.76Z"/>
      <path class="cls-1" d="M1327.93,305.43c-1.35,0-2.45-.43-3.29-1.28s-1.26-1.99-1.26-3.41v-.26c0-.95.18-1.8.55-2.54s.88-1.33,1.54-1.75,1.4-.62,2.21-.62c1.29,0,2.29.41,3,1.24s1.06,2,1.06,3.51v.86h-6.21c.06.79.33,1.41.79,1.86s1.04.69,1.74.69c.98,0,1.78-.4,2.39-1.19l1.15,1.1c-.38.57-.89,1.01-1.53,1.32s-1.35.47-2.14.47ZM1327.67,297.28c-.59,0-1.06.21-1.42.62s-.59.98-.69,1.71h4.07v-.16c-.05-.71-.24-1.25-.57-1.62s-.8-.55-1.39-.55Z"/>
      <path class="cls-1" d="M1343.21,302.67c0-.38-.16-.67-.47-.87s-.83-.38-1.56-.53-1.33-.35-1.82-.58c-1.07-.52-1.6-1.26-1.6-2.24,0-.82.35-1.51,1.04-2.06s1.57-.83,2.64-.83c1.14,0,2.05.28,2.75.84s1.05,1.29,1.05,2.19h-2.14c0-.41-.15-.75-.46-1.02s-.71-.41-1.21-.41c-.47,0-.85.11-1.15.33s-.44.51-.44.87c0,.33.14.58.41.76s.83.37,1.67.55,1.5.4,1.97.66.83.56,1.06.92.35.79.35,1.3c0,.86-.35,1.55-1.06,2.08s-1.64.79-2.79.79c-.78,0-1.47-.14-2.08-.42s-1.08-.67-1.42-1.16-.51-1.02-.51-1.59h2.07c.03.5.22.89.57,1.17s.82.41,1.4.41.99-.11,1.28-.32.44-.49.44-.84Z"/>
      <path class="cls-1" d="M1349.85,293.43v2.31h1.68v1.58h-1.68v5.31c0,.36.07.63.21.79s.4.24.77.24c.25,0,.5-.03.75-.09v1.65c-.49.13-.96.2-1.41.2-1.64,0-2.46-.91-2.46-2.72v-5.39h-1.56v-1.58h1.56v-2.31h2.14Z"/>
      <path class="cls-1" d="M1358.84,305.25c-.09-.18-.18-.48-.25-.89-.68.71-1.51,1.06-2.5,1.06s-1.73-.27-2.34-.82-.91-1.22-.91-2.02c0-1.01.38-1.79,1.13-2.33s1.83-.81,3.23-.81h1.31v-.62c0-.49-.14-.89-.41-1.18s-.69-.44-1.26-.44c-.49,0-.88.12-1.2.37s-.47.55-.47.93h-2.14c0-.52.17-1.01.52-1.46s.82-.81,1.41-1.07,1.26-.39,1.99-.39c1.11,0,2,.28,2.66.84s1,1.35,1.02,2.36v4.29c0,.86.12,1.54.36,2.05v.15h-2.18ZM1356.49,303.71c.42,0,.82-.1,1.19-.31s.65-.48.84-.83v-1.79h-1.15c-.79,0-1.39.14-1.78.41s-.6.67-.6,1.17c0,.41.14.74.41.98s.64.36,1.09.36Z"/>
      <path class="cls-1" d="M1367.87,297.69c-.28-.05-.57-.07-.87-.07-.98,0-1.64.38-1.98,1.12v6.5h-2.14v-9.51h2.04l.05,1.06c.52-.83,1.23-1.24,2.14-1.24.3,0,.56.04.76.12v2Z"/>
      <path class="cls-1" d="M1372.34,293.43v2.31h1.68v1.58h-1.68v5.31c0,.36.07.63.21.79s.4.24.77.24c.25,0,.5-.03.75-.09v1.65c-.49.13-.96.2-1.41.2-1.64,0-2.46-.91-2.46-2.72v-5.39h-1.56v-1.58h1.56v-2.31h2.14Z"/>
      <path class="cls-1" d="M1379.83,305.43c-1.35,0-2.45-.43-3.29-1.28s-1.26-1.99-1.26-3.41v-.26c0-.95.18-1.8.55-2.54s.88-1.33,1.54-1.75,1.4-.62,2.21-.62c1.29,0,2.29.41,3,1.24s1.06,2,1.06,3.51v.86h-6.21c.06.79.33,1.41.79,1.86s1.04.69,1.74.69c.98,0,1.78-.4,2.39-1.19l1.15,1.1c-.38.57-.89,1.01-1.53,1.32s-1.35.47-2.14.47ZM1379.58,297.28c-.59,0-1.06.21-1.42.62s-.59.98-.69,1.71h4.07v-.16c-.05-.71-.24-1.25-.57-1.62s-.8-.55-1.39-.55Z"/>
      <path class="cls-1" d="M1387.29,295.74l.06,1.1c.7-.85,1.63-1.27,2.77-1.27,1.98,0,2.99,1.13,3.02,3.4v6.28h-2.14v-6.16c0-.6-.13-1.05-.39-1.34s-.69-.44-1.28-.44c-.86,0-1.5.39-1.92,1.17v6.77h-2.14v-9.51h2.01Z"/>
    </g>
  </g>
  <g>
    <line class="cls-3" x1="419.33" y1="198.73" x2="419.33" y2="229.58"/>
    <polygon class="cls-5" points="411.15 222.95 412.61 221.59 419.33 228.81 426.04 221.59 427.51 222.95 419.33 231.75 411.15 222.95"/>
  </g>
  <g>
    <line class="cls-3" x1="111.89" y1="123.03" x2="286.13" y2="123.03"/>
    <polygon class="cls-5" points="279.51 131.21 278.14 129.74 285.36 123.03 278.14 116.31 279.51 114.85 288.3 123.03 279.51 131.21"/>
  </g>
  <line class="cls-3" x1="111.89" y1="122" x2="111.88" y2="229.11"/>
  <g>
    <line class="cls-3" x1="253.71" y1="303.54" x2="284.56" y2="303.54"/>
    <polygon class="cls-5" points="277.93 311.72 276.57 310.25 283.79 303.54 276.57 296.83 277.93 295.36 286.73 303.54 277.93 311.72"/>
  </g>
  <g>
    <rect class="cls-2" x="0" y="2.53" width="192.48" height="54.84"/>
    <path class="cls-4" d="M8,13.97h-3.3v6.56H1.73V3.47h6c1.97,0,3.49.44,4.56,1.33s1.61,2.16,1.61,3.83c0,1.14-.28,2.1-.83,2.87s-1.32,1.36-2.3,1.78l3.83,7.11v.15h-3.18l-3.42-6.56ZM4.7,11.58h3.05c1,0,1.78-.25,2.34-.76s.84-1.19.84-2.07-.26-1.62-.78-2.12-1.29-.76-2.33-.77h-3.13v5.72Z"/>
    <path class="cls-4" d="M22.02,20.77c-1.8,0-3.27-.57-4.39-1.71s-1.68-2.65-1.68-4.54v-.35c0-1.27.24-2.4.73-3.39s1.17-1.77,2.06-2.33,1.87-.83,2.95-.83c1.73,0,3.06.55,4,1.65s1.41,2.66,1.41,4.68v1.15h-8.29c.09,1.05.44,1.88,1.05,2.48s1.38.91,2.31.91c1.3,0,2.37-.53,3.19-1.58l1.54,1.46c-.51.76-1.19,1.35-2.03,1.76s-1.8.63-2.85.63ZM21.68,9.9c-.78,0-1.41.27-1.89.82s-.79,1.31-.92,2.29h5.43v-.21c-.06-.95-.32-1.67-.76-2.16s-1.06-.73-1.85-.73Z"/>
    <path class="cls-4" d="M36.42,17.09c0-.51-.21-.89-.63-1.16s-1.11-.5-2.08-.7-1.78-.46-2.43-.77c-1.42-.69-2.13-1.68-2.13-2.99,0-1.09.46-2.01,1.38-2.74s2.09-1.1,3.52-1.1c1.52,0,2.74.38,3.67,1.12s1.4,1.72,1.4,2.92h-2.85c0-.55-.2-1-.61-1.37s-.95-.54-1.62-.54c-.62,0-1.13.14-1.53.43s-.59.68-.59,1.16c0,.44.18.78.55,1.02s1.11.49,2.23.73,1.99.54,2.63.88,1.11.75,1.42,1.22.46,1.05.46,1.73c0,1.14-.47,2.06-1.42,2.77s-2.18,1.06-3.71,1.06c-1.04,0-1.96-.19-2.78-.56s-1.45-.89-1.9-1.55-.68-1.36-.68-2.12h2.77c.04.67.29,1.19.76,1.55s1.09.54,1.86.54,1.32-.14,1.71-.43.59-.66.59-1.12Z"/>
    <path class="cls-4" d="M47.29,20.77c-1.8,0-3.27-.57-4.39-1.71s-1.68-2.65-1.68-4.54v-.35c0-1.27.24-2.4.73-3.39s1.17-1.77,2.06-2.33,1.87-.83,2.95-.83c1.73,0,3.06.55,4,1.65s1.41,2.66,1.41,4.68v1.15h-8.29c.09,1.05.44,1.88,1.05,2.48s1.38.91,2.31.91c1.3,0,2.37-.53,3.19-1.58l1.54,1.46c-.51.76-1.19,1.35-2.03,1.76s-1.8.63-2.85.63ZM46.95,9.9c-.78,0-1.41.27-1.89.82s-.79,1.31-.92,2.29h5.43v-.21c-.06-.95-.32-1.67-.76-2.16s-1.06-.73-1.85-.73Z"/>
    <path class="cls-4" d="M62.16,20.53c-.12-.24-.23-.64-.33-1.18-.91.95-2.02,1.42-3.33,1.42s-2.31-.36-3.12-1.09-1.21-1.62-1.21-2.7c0-1.35.5-2.39,1.51-3.11s2.44-1.08,4.31-1.08h1.75v-.83c0-.66-.18-1.18-.55-1.58s-.93-.59-1.68-.59c-.65,0-1.18.16-1.59.49s-.62.74-.62,1.24h-2.85c0-.7.23-1.35.69-1.95s1.09-1.08,1.88-1.42,1.68-.52,2.65-.52c1.48,0,2.67.37,3.55,1.12s1.34,1.79,1.36,3.15v5.72c0,1.14.16,2.05.48,2.73v.2h-2.91ZM59.03,18.48c.56,0,1.09-.14,1.59-.41s.87-.64,1.12-1.1v-2.39h-1.54c-1.05,0-1.85.18-2.38.55s-.8.89-.8,1.56c0,.55.18.98.54,1.31s.85.49,1.46.49Z"/>
    <path class="cls-4" d="M74.2,10.45c-.38-.06-.76-.09-1.16-.09-1.3,0-2.18.5-2.64,1.5v8.67h-2.85V7.85h2.72l.07,1.42c.69-1.1,1.64-1.65,2.86-1.65.41,0,.74.05,1.01.16v2.67Z"/>
    <path class="cls-4" d="M80.99,18.49c.71,0,1.3-.21,1.77-.62s.72-.93.75-1.54h2.68c-.03.79-.28,1.53-.74,2.21s-1.09,1.22-1.88,1.62-1.64.6-2.55.6c-1.77,0-3.18-.57-4.22-1.72s-1.56-2.73-1.56-4.76v-.29c0-1.93.52-3.47,1.55-4.63s2.44-1.74,4.22-1.74c1.51,0,2.74.44,3.69,1.32s1.45,2.03,1.49,3.46h-2.68c-.03-.73-.28-1.32-.74-1.79s-1.06-.7-1.78-.7c-.92,0-1.63.33-2.13,1s-.75,1.68-.76,3.04v.46c0,1.38.25,2.4.74,3.08s1.21,1.01,2.15,1.01Z"/>
    <path class="cls-4" d="M91.15,9.23c.93-1.08,2.11-1.62,3.53-1.62,2.7,0,4.07,1.54,4.11,4.63v8.29h-2.85v-8.18c0-.88-.19-1.49-.57-1.86s-.94-.54-1.67-.54c-1.14,0-1.99.51-2.55,1.52v9.06h-2.85V2.53h2.85v6.7Z"/>
    <path class="cls-4" d="M120.94,14.98c-.17,1.82-.84,3.24-2.02,4.26s-2.73,1.53-4.68,1.53c-1.36,0-2.56-.32-3.59-.97s-1.83-1.56-2.4-2.75-.86-2.57-.88-4.14v-1.59c0-1.61.29-3.03.86-4.25s1.39-2.17,2.46-2.84,2.3-1,3.7-1c1.88,0,3.4.51,4.55,1.53s1.82,2.46,2,4.33h-2.95c-.14-1.23-.5-2.11-1.07-2.65s-1.42-.81-2.53-.81c-1.29,0-2.28.47-2.97,1.41s-1.04,2.33-1.06,4.15v1.51c0,1.84.33,3.25.99,4.22s1.63,1.45,2.9,1.45c1.16,0,2.04-.26,2.62-.79s.96-1.39,1.11-2.61h2.95Z"/>
    <path class="cls-4" d="M126.34,20.53h-2.85V2.53h2.85v18Z"/>
    <path class="cls-4" d="M128.91,14.07c0-1.24.25-2.36.74-3.36s1.18-1.76,2.07-2.3,1.91-.8,3.07-.8c1.71,0,3.1.55,4.17,1.65s1.64,2.56,1.73,4.38v.67c.01,1.25-.23,2.37-.71,3.35s-1.17,1.75-2.06,2.29-1.93.81-3.1.81c-1.79,0-3.22-.6-4.29-1.79s-1.61-2.78-1.61-4.76v-.14ZM131.75,14.32c0,1.3.27,2.33.81,3.06s1.29,1.11,2.25,1.11,1.71-.38,2.24-1.12.8-1.85.8-3.29c0-1.28-.28-2.3-.83-3.05s-1.3-1.12-2.24-1.12-1.67.37-2.21,1.11-.82,1.84-.82,3.31Z"/>
    <path class="cls-4" d="M150.79,19.29c-.84.98-2.02,1.48-3.56,1.48-1.38,0-2.42-.4-3.12-1.21s-1.06-1.97-1.06-3.49V7.85h2.85v8.18c0,1.61.67,2.41,2,2.41s2.32-.5,2.8-1.49V7.85h2.85v12.68h-2.68l-.07-1.24Z"/>
    <path class="cls-4" d="M155.91,14.1c0-1.95.45-3.52,1.36-4.71s2.12-1.78,3.64-1.78c1.34,0,2.43.47,3.26,1.41V2.53h2.85v18h-2.58l-.14-1.31c-.85,1.03-1.99,1.55-3.41,1.55s-2.69-.6-3.6-1.79-1.38-2.82-1.38-4.88ZM158.75,14.34c0,1.29.25,2.29.74,3.02s1.2,1.08,2.12,1.08c1.16,0,2.02-.52,2.55-1.56v-5.41c-.52-1.02-1.37-1.52-2.53-1.52-.92,0-1.63.37-2.13,1.1s-.75,1.83-.75,3.3Z"/>
    <path class="cls-4" d="M9.04,49.33c-.12-.24-.23-.64-.33-1.18-.91.95-2.02,1.42-3.33,1.42s-2.31-.36-3.12-1.09-1.21-1.62-1.21-2.7c0-1.35.5-2.39,1.51-3.11s2.44-1.08,4.31-1.08h1.75v-.83c0-.66-.18-1.18-.55-1.58s-.93-.59-1.68-.59c-.65,0-1.18.16-1.59.49s-.62.74-.62,1.24H1.32c0-.7.23-1.35.69-1.95s1.09-1.08,1.88-1.42,1.68-.52,2.65-.52c1.48,0,2.67.37,3.55,1.12s1.34,1.79,1.36,3.15v5.72c0,1.14.16,2.05.48,2.73v.2h-2.91ZM5.91,47.28c.56,0,1.09-.14,1.59-.41s.87-.64,1.12-1.1v-2.39h-1.54c-1.05,0-1.85.18-2.38.55s-.8.89-.8,1.56c0,.55.18.98.54,1.31s.85.49,1.46.49Z"/>
    <path class="cls-4" d="M22.02,49.33c-.12-.24-.23-.64-.33-1.18-.91.95-2.02,1.42-3.33,1.42s-2.31-.36-3.12-1.09-1.21-1.62-1.21-2.7c0-1.35.5-2.39,1.51-3.11s2.44-1.08,4.31-1.08h1.75v-.83c0-.66-.18-1.18-.55-1.58s-.93-.59-1.68-.59c-.65,0-1.18.16-1.59.49s-.62.74-.62,1.24h-2.85c0-.7.23-1.35.69-1.95s1.09-1.08,1.88-1.42,1.68-.52,2.65-.52c1.48,0,2.67.37,3.55,1.12s1.34,1.79,1.36,3.15v5.72c0,1.14.16,2.05.48,2.73v.2h-2.91ZM18.89,47.28c.56,0,1.09-.14,1.59-.41s.87-.64,1.12-1.1v-2.39h-1.54c-1.05,0-1.85.18-2.38.55s-.8.89-.8,1.56c0,.55.18.98.54,1.31s.85.49,1.46.49Z"/>
    <path class="cls-4" d="M30.07,36.65l.08,1.46c.94-1.13,2.17-1.7,3.69-1.7,2.64,0,3.98,1.51,4.03,4.54v8.38h-2.85v-8.21c0-.8-.17-1.4-.52-1.79s-.92-.58-1.71-.58c-1.15,0-2,.52-2.57,1.56v9.02h-2.85v-12.68h2.68Z"/>
    <path class="cls-4" d="M45.25,45.72l2.68-9.07h2.94l-4.39,12.68h-2.47l-4.43-12.68h2.95l2.72,9.07Z"/>
    <path class="cls-4" d="M59.29,39.25c-.38-.06-.76-.09-1.16-.09-1.3,0-2.18.5-2.64,1.5v8.67h-2.85v-12.68h2.72l.07,1.42c.69-1.1,1.64-1.65,2.86-1.65.41,0,.74.05,1.01.16v2.67Z"/>
    <path class="cls-4" d="M68.31,49.33c-.12-.24-.23-.64-.33-1.18-.91.95-2.02,1.42-3.33,1.42s-2.31-.36-3.12-1.09-1.21-1.62-1.21-2.7c0-1.35.5-2.39,1.51-3.11s2.44-1.08,4.31-1.08h1.75v-.83c0-.66-.18-1.18-.55-1.58s-.93-.59-1.68-.59c-.65,0-1.18.16-1.59.49s-.62.74-.62,1.24h-2.85c0-.7.23-1.35.69-1.95s1.09-1.08,1.88-1.42,1.68-.52,2.65-.52c1.48,0,2.67.37,3.55,1.12s1.34,1.79,1.36,3.15v5.72c0,1.14.16,2.05.48,2.73v.2h-2.91ZM65.18,47.28c.56,0,1.09-.14,1.59-.41s.87-.64,1.12-1.1v-2.39h-1.54c-1.05,0-1.85.18-2.38.55s-.8.89-.8,1.56c0,.55.18.98.54,1.31s.85.49,1.46.49Z"/>
    <path class="cls-4" d="M81.29,49.33c-.12-.24-.23-.64-.33-1.18-.91.95-2.02,1.42-3.33,1.42s-2.31-.36-3.12-1.09-1.21-1.62-1.21-2.7c0-1.35.5-2.39,1.51-3.11s2.44-1.08,4.31-1.08h1.75v-.83c0-.66-.18-1.18-.55-1.58s-.93-.59-1.68-.59c-.65,0-1.18.16-1.59.49s-.62.74-.62,1.24h-2.85c0-.7.23-1.35.69-1.95s1.09-1.08,1.88-1.42,1.68-.52,2.65-.52c1.48,0,2.67.37,3.55,1.12s1.34,1.79,1.36,3.15v5.72c0,1.14.16,2.05.48,2.73v.2h-2.91ZM78.16,47.28c.56,0,1.09-.14,1.59-.41s.87-.64,1.12-1.1v-2.39h-1.54c-1.05,0-1.85.18-2.38.55s-.8.89-.8,1.56c0,.55.18.98.54,1.31s.85.49,1.46.49Z"/>
    <path class="cls-4" d="M86.2,42.9c0-1.97.46-3.54,1.39-4.72s2.15-1.76,3.69-1.76c1.45,0,2.58.5,3.41,1.51l.13-1.28h2.57v12.29c0,1.66-.52,2.98-1.55,3.94s-2.43,1.44-4.19,1.44c-.93,0-1.84-.19-2.72-.58s-1.56-.89-2.02-1.52l1.35-1.71c.88,1.04,1.95,1.56,3.23,1.56.95,0,1.69-.26,2.24-.77s.82-1.26.82-2.26v-.86c-.82.91-1.91,1.37-3.28,1.37-1.48,0-2.7-.59-3.64-1.77s-1.41-2.81-1.41-4.9ZM89.04,43.14c0,1.27.26,2.28.78,3.01s1.24,1.1,2.16,1.1c1.15,0,2-.49,2.55-1.48v-5.58c-.54-.96-1.38-1.44-2.53-1.44-.94,0-1.67.37-2.19,1.11s-.78,1.84-.78,3.28Z"/>
    <path class="cls-4" d="M111.41,43.12c0,1.96-.45,3.53-1.34,4.69s-2.09,1.75-3.59,1.75c-1.39,0-2.5-.46-3.34-1.37v6.01h-2.85v-17.55h2.62l.12,1.29c.84-1.02,1.97-1.52,3.41-1.52,1.55,0,2.76.58,3.64,1.73s1.32,2.75,1.32,4.8v.18ZM108.57,42.87c0-1.27-.25-2.27-.76-3.01s-1.22-1.11-2.16-1.11c-1.16,0-2,.48-2.51,1.44v5.62c.52.98,1.36,1.48,2.53,1.48.91,0,1.62-.37,2.13-1.1s.77-1.84.77-3.32Z"/>
    <path class="cls-4" d="M120.46,39.25c-.38-.06-.76-.09-1.16-.09-1.3,0-2.18.5-2.64,1.5v8.67h-2.85v-12.68h2.72l.07,1.42c.69-1.1,1.64-1.65,2.86-1.65.41,0,.74.05,1.01.16v2.67Z"/>
    <path class="cls-4" d="M121.3,42.87c0-1.24.25-2.36.74-3.36s1.18-1.76,2.07-2.3,1.91-.8,3.07-.8c1.71,0,3.1.55,4.17,1.65s1.64,2.56,1.73,4.38v.67c.01,1.25-.23,2.37-.71,3.35s-1.17,1.75-2.06,2.29-1.93.81-3.1.81c-1.79,0-3.22-.6-4.29-1.79s-1.61-2.78-1.61-4.76v-.14ZM124.15,43.12c0,1.3.27,2.33.81,3.06s1.29,1.11,2.25,1.11,1.71-.38,2.24-1.12.8-1.85.8-3.29c0-1.28-.28-2.3-.83-3.05s-1.3-1.12-2.24-1.12-1.67.37-2.21,1.11-.82,1.84-.82,3.31Z"/>
    <path class="cls-4" d="M140.71,47.29c.71,0,1.3-.21,1.77-.62s.72-.93.75-1.54h2.68c-.03.79-.28,1.53-.74,2.21s-1.09,1.22-1.88,1.62-1.64.6-2.55.6c-1.77,0-3.18-.57-4.22-1.72s-1.56-2.73-1.56-4.76v-.29c0-1.93.52-3.47,1.55-4.63s2.44-1.74,4.22-1.74c1.51,0,2.74.44,3.69,1.32s1.45,2.03,1.49,3.46h-2.68c-.03-.73-.28-1.32-.74-1.79s-1.06-.7-1.78-.7c-.92,0-1.63.33-2.13,1s-.75,1.68-.76,3.04v.46c0,1.38.25,2.4.74,3.08s1.21,1.01,2.15,1.01Z"/>
    <path class="cls-4" d="M153.64,49.57c-1.8,0-3.27-.57-4.39-1.71s-1.68-2.65-1.68-4.54v-.35c0-1.27.24-2.4.73-3.39s1.17-1.77,2.06-2.33,1.87-.83,2.95-.83c1.73,0,3.06.55,4,1.65s1.41,2.66,1.41,4.68v1.15h-8.29c.09,1.05.44,1.88,1.05,2.48s1.38.91,2.31.91c1.3,0,2.37-.53,3.19-1.58l1.54,1.46c-.51.76-1.19,1.35-2.03,1.76s-1.8.63-2.85.63ZM153.3,38.7c-.78,0-1.41.27-1.89.82s-.79,1.31-.92,2.29h5.43v-.21c-.06-.95-.32-1.67-.76-2.16s-1.06-.73-1.85-.73Z"/>
    <path class="cls-4" d="M168.05,45.89c0-.51-.21-.89-.63-1.16s-1.11-.5-2.08-.7-1.78-.46-2.43-.77c-1.42-.69-2.13-1.68-2.13-2.99,0-1.09.46-2.01,1.38-2.74s2.09-1.1,3.52-1.1c1.52,0,2.74.38,3.67,1.12s1.4,1.72,1.4,2.92h-2.85c0-.55-.2-1-.61-1.37s-.95-.54-1.62-.54c-.62,0-1.13.14-1.53.43s-.59.68-.59,1.16c0,.44.18.78.55,1.02s1.11.49,2.23.73,1.99.54,2.63.88,1.11.75,1.42,1.22.46,1.05.46,1.73c0,1.14-.47,2.06-1.42,2.77s-2.18,1.06-3.71,1.06c-1.04,0-1.96-.19-2.78-.56s-1.45-.89-1.9-1.55-.68-1.36-.68-2.12h2.77c.04.67.29,1.19.76,1.55s1.09.54,1.86.54,1.32-.14,1.71-.43.59-.66.59-1.12Z"/>
  </g>
  <g>
    <rect class="cls-2" x="200.98" y="93.34" width="15.69" height="14.55"/>
    <path class="cls-4" d="M204.3,97.33v10.35c0,.97-.24,1.72-.73,2.23s-1.19.77-2.12.77c-.39,0-.77-.05-1.13-.15v-1.69c.22.05.47.08.76.08.71,0,1.07-.39,1.09-1.16v-10.43h2.14ZM201.98,94.86c0-.33.1-.6.31-.82s.51-.33.89-.33.69.11.9.33.32.49.32.82-.11.59-.32.8-.51.32-.9.32-.68-.11-.89-.32-.31-.48-.31-.8Z"/>
    <path class="cls-4" d="M212.26,106.84c-.09-.18-.18-.48-.25-.89-.68.71-1.51,1.06-2.5,1.06s-1.73-.27-2.34-.82-.91-1.22-.91-2.02c0-1.01.38-1.79,1.13-2.33s1.83-.81,3.23-.81h1.31v-.62c0-.49-.14-.89-.41-1.18s-.69-.44-1.26-.44c-.49,0-.88.12-1.2.36s-.47.55-.47.93h-2.14c0-.52.17-1.01.52-1.46s.82-.81,1.41-1.07,1.26-.39,1.99-.39c1.11,0,2,.28,2.66.84s1,1.35,1.02,2.36v4.29c0,.86.12,1.54.36,2.05v.15h-2.18ZM209.92,105.3c.42,0,.82-.1,1.19-.31s.65-.48.84-.83v-1.79h-1.15c-.79,0-1.39.14-1.78.41s-.6.67-.6,1.17c0,.41.14.74.41.98s.64.36,1.09.36Z"/>
  </g>
  <g>
    <rect class="cls-2" x="253.71" y="269.9" width="30.8" height="13.68"/>
    <path class="cls-4" d="M256.79,273.89l.06,1.1c.7-.85,1.63-1.27,2.77-1.27,1.98,0,2.99,1.13,3.02,3.4v6.28h-2.14v-6.16c0-.6-.13-1.05-.39-1.34s-.69-.43-1.28-.43c-.86,0-1.5.39-1.92,1.17v6.77h-2.14v-9.51h2.01Z"/>
    <path class="cls-4" d="M269.01,283.58c-1.35,0-2.45-.43-3.29-1.28s-1.26-1.99-1.26-3.41v-.26c0-.95.18-1.8.55-2.54s.88-1.33,1.54-1.74,1.4-.62,2.21-.62c1.29,0,2.3.41,3,1.24s1.06,2,1.06,3.51v.86h-6.21c.06.79.33,1.41.79,1.86s1.04.69,1.74.69c.98,0,1.78-.4,2.39-1.19l1.15,1.1c-.38.57-.89,1.01-1.52,1.32s-1.35.47-2.14.47ZM268.75,275.43c-.59,0-1.06.21-1.42.62s-.59.98-.69,1.71h4.07v-.16c-.05-.71-.24-1.26-.57-1.62s-.8-.55-1.39-.55Z"/>
    <path class="cls-4" d="M278.67,283.58c-1.35,0-2.45-.43-3.29-1.28s-1.26-1.99-1.26-3.41v-.26c0-.95.18-1.8.55-2.54s.88-1.33,1.54-1.74,1.4-.62,2.21-.62c1.29,0,2.3.41,3,1.24s1.06,2,1.06,3.51v.86h-6.21c.06.79.33,1.41.79,1.86s1.04.69,1.74.69c.98,0,1.78-.4,2.39-1.19l1.15,1.1c-.38.57-.89,1.01-1.52,1.32s-1.35.47-2.14.47ZM278.41,275.43c-.59,0-1.06.21-1.42.62s-.59.98-.69,1.71h4.07v-.16c-.05-.71-.24-1.26-.57-1.62s-.8-.55-1.39-.55Z"/>
  </g>
  <g>
    <line class="cls-3" x1="560.14" y1="301.92" x2="590.99" y2="301.92"/>
    <polygon class="cls-5" points="584.36 310.1 583 308.64 590.22 301.93 583 295.21 584.36 293.75 593.16 301.93 584.36 310.1"/>
  </g>
  <g>
    <line class="cls-3" x1="867.59" y1="304.56" x2="898.43" y2="304.56"/>
    <polygon class="cls-5" points="891.8 312.74 890.44 311.28 897.66 304.57 890.44 297.85 891.8 296.39 900.6 304.57 891.8 312.74"/>
  </g>
  <g>
    <line class="cls-3" x1="1175.03" y1="300.97" x2="1205.87" y2="300.97"/>
    <polygon class="cls-5" points="1199.25 309.15 1197.88 307.69 1205.11 300.98 1197.88 294.26 1199.25 292.8 1208.04 300.98 1199.25 309.15"/>
  </g>
</svg>